<svg width="100" height="100" viewBox="0 0 100 100" fill="none" xmlns="http://www.w3.org/2000/svg">
<g clip-path="url(#clip0)">
<path d="M46.42 15.0508V39.5808C46.4331 52.614 51.9817 65.0281 61.6833 73.7308C67.0608 78.544 75.1327 78.7556 80.755 74.2308L81.2667 73.8208C92.0661 65.1256 98.3421 52.004 98.3334 38.1392V15.0508C81.4888 9.40916 63.2646 9.40916 46.42 15.0508Z" fill="#FDB62F"/>
<path d="M88.3333 12.3992V38.1392C88.3415 52.0033 82.0656 65.1242 71.2667 73.8192L70.755 74.2292C69.4844 75.25 68.0533 76.0531 66.52 76.6058C71.3537 78.3611 76.7535 77.4596 80.755 74.2292L81.2667 73.8192C92.0656 65.1242 98.3415 52.0033 98.3333 38.1392V15.0508C95.0592 13.9575 91.7192 13.0717 88.3333 12.3992Z" fill="#FFA83D"/>
<path d="M59.3983 49.4458C67.5638 53.5506 77.1896 53.5506 85.355 49.4458L83.765 54.2391C82.1433 59.1554 77.5536 62.4791 72.3767 62.4858C67.1998 62.4791 62.61 59.1554 60.9883 54.2391L59.3983 49.4458Z" fill="#DE4C3C"/>
<path d="M55.07 36.2774C54.1496 36.2758 53.4048 35.5283 53.4065 34.6077C53.4071 34.2814 53.5033 33.9627 53.6833 33.6908C56.6602 29.1993 62.1438 27.0702 67.3717 28.3758L68.455 28.6474C69.3463 28.8774 69.8823 29.7864 69.6523 30.6777C69.4246 31.5599 68.5304 32.0958 67.645 31.8808L66.56 31.6091C62.7025 30.6504 58.6588 32.221 56.46 35.5324C56.1508 35.9981 55.629 36.2779 55.07 36.2774Z" fill="#DE4C3C"/>
<path d="M91.845 36.8842C91.2858 36.8842 90.7637 36.6038 90.455 36.1375C88.2571 32.8271 84.2148 31.2565 80.3583 32.2142L79.27 32.4859C78.3704 32.6811 77.4831 32.11 77.2879 31.2104C77.1015 30.3513 77.6146 29.495 78.46 29.2542L79.5467 28.9809C84.7733 27.6788 90.254 29.8073 93.2317 34.2958C93.7406 35.0627 93.5317 36.0971 92.7648 36.6061C92.4921 36.7871 92.1723 36.8838 91.845 36.8842Z" fill="#DE4C3C"/>
<path d="M46.42 28.8075C31.6046 32.3142 16.1042 31.6117 1.66666 26.7792V51.2475C1.6602 64.2848 7.21208 76.7065 16.93 85.3975C22.3075 90.2106 30.3794 90.4223 36.0017 85.8975L36.5133 85.4875C44.11 79.3694 49.5496 70.9808 52.0367 61.5492C48.355 54.8133 46.4237 47.2606 46.42 39.5842V28.8075Z" fill="#4398D1"/>
<path d="M46.42 39.5808V28.8075C44.2933 29.3075 42.1517 29.7158 40 30.0475V36.8025C40.0002 46.0346 42.0233 55.1546 45.9267 63.5208L48.8983 69.8875C50.2125 67.2152 51.2635 64.4217 52.0367 61.5458C48.355 54.8098 46.4237 47.2573 46.42 39.5808Z" fill="#3E8CC7"/>
<path d="M8.33334 52.3391C7.41292 52.3391 6.66667 51.5928 6.66667 50.6724C6.66667 49.752 7.41292 49.0058 8.33334 49.0058C11.8371 49.0045 15.1058 47.2439 17.035 44.3191L17.7583 43.2241C18.2673 42.4564 19.3023 42.2468 20.07 42.7557C20.8377 43.2647 21.0473 44.2997 20.5383 45.0674L19.8133 46.1624C17.2671 50.0189 12.9546 52.3391 8.33334 52.3391Z" fill="#3570AB"/>
<path d="M40.78 52.3391C36.161 52.3421 31.8492 50.0256 29.3017 46.1725L28.575 45.0775C28.066 44.3102 28.2752 43.2756 29.0425 42.7666C29.8098 42.2577 30.8444 42.4668 31.3533 43.2341L32.08 44.3291C34.0096 47.2516 37.2779 49.0098 40.78 49.0091C41.7004 49.0091 42.4467 49.7554 42.4467 50.6758C42.4467 51.5962 41.7004 52.3425 40.78 52.3425V52.3391Z" fill="#3570AB"/>
<path d="M16.2767 74.4857C17.4302 76.2305 19.7058 76.8376 21.575 75.8991C24.961 74.1974 28.9523 74.1974 32.3383 75.8991C34.2075 76.8376 36.4831 76.2305 37.6367 74.4857C38.9102 72.5743 38.3965 69.9926 36.4883 68.7141C30.7221 64.8476 23.1913 64.8476 17.425 68.7141C15.5169 69.9926 15.0031 72.5743 16.2767 74.4857Z" fill="#3570AB"/>
<path d="M40.8183 50.7925L37.5633 58.3875C36.7956 60.1867 37.6317 62.2673 39.4308 63.035C39.8696 63.2221 40.3415 63.3187 40.8183 63.3192C42.7744 63.319 44.3598 61.7331 44.3596 59.7771C44.3596 59.2977 44.2621 58.8231 44.0733 58.3825L40.8183 50.7925Z" fill="#87CED9"/>
<path d="M66.56 31.6091L67.645 31.8808C68.5394 32.0981 69.4407 31.5491 69.6582 30.6547C69.8734 29.7693 69.3375 28.8752 68.455 28.6474L67.3717 28.3758C62.1438 27.0702 56.6602 29.1993 53.6833 33.6908C53.1973 34.4724 53.4367 35.5002 54.2183 35.9862C54.9679 36.4524 55.9508 36.2533 56.46 35.5324C58.6588 32.221 62.7025 30.6504 66.56 31.6091Z" fill="#666666"/>
<path d="M84.6067 47.9558C76.9075 51.8041 67.8458 51.8041 60.1467 47.9558C59.3252 47.5406 58.3225 47.87 57.9073 48.6914C57.7069 49.0877 57.6731 49.5477 57.8131 49.9691L59.4048 54.7625C61.7575 61.9256 69.4717 65.8252 76.6348 63.4725C80.7575 62.1183 83.9908 58.885 85.3448 54.7625L86.9348 49.9691C87.2252 49.0956 86.7525 48.1523 85.8792 47.8618C85.4577 47.7216 84.9979 47.7556 84.6015 47.9558H84.6067ZM82.1833 53.7141C80.4081 59.1302 74.5785 62.0816 69.1623 60.3064C66.0408 59.2833 63.5929 56.8354 62.57 53.7141L62.1417 52.4225C68.765 54.7558 75.9867 54.7558 82.61 52.4225L82.1833 53.7141Z" fill="#666666"/>
<path d="M79.27 32.4858L80.3583 32.2142C84.2148 31.2565 88.2571 32.8271 90.455 36.1375C90.941 36.9192 91.969 37.1588 92.7504 36.6725C93.5321 36.1865 93.7717 35.1586 93.2854 34.3771C93.2683 34.3496 93.2502 34.3225 93.2315 34.2958C90.2523 29.8092 84.7721 27.6827 79.5465 28.9858L78.4598 29.2592C77.5827 29.5388 77.0985 30.4765 77.3781 31.3533C77.6335 32.1536 78.4442 32.639 79.27 32.4858Z" fill="#666666"/>
<path d="M98.8615 13.4708C81.6675 7.75079 63.0838 7.75079 45.8899 13.4708C45.2109 13.6985 44.7532 14.3345 44.7532 15.0508V27.4641C30.6235 30.5732 15.915 29.7905 2.195 25.1991C1.32208 24.9072 0.377708 25.3785 0.0860415 26.2514C0.0291666 26.4216 5.65774e-09 26.5997 5.65774e-09 26.7791V51.2474C-0.000208327 64.7582 5.75311 77.6296 15.82 86.6406C21.807 91.9958 30.791 92.2293 37.0483 87.1923L37.5583 86.7823C44.4409 81.269 49.6309 73.9279 52.5332 65.6007C54.7893 69.065 57.4926 72.2167 60.5732 74.974C66.5599 80.329 75.5432 80.5625 81.7998 75.5256L82.3098 75.1156C93.53 66.1273 100.042 52.5155 99.9998 38.1391V15.0508C99.9996 14.3341 99.541 13.6979 98.8615 13.4708ZM35.4683 84.1873L34.9683 84.5973C29.9779 88.6146 22.8122 88.4262 18.04 84.1523C8.68082 75.775 3.33228 63.8082 3.33333 51.2474V29.0607C16.7652 33.1511 31.0126 33.7818 44.7532 30.8941V39.5874C44.7532 40.5618 44.7839 41.5363 44.8449 42.5107C44.8649 42.834 44.9082 43.154 44.9349 43.4774C44.9882 44.124 45.0382 44.7724 45.1182 45.4174C45.1682 45.809 45.2399 46.1957 45.2982 46.584C45.3849 47.1574 45.4649 47.7324 45.5716 48.3024C45.6482 48.7157 45.7499 49.1257 45.8382 49.5374C45.9549 50.0774 46.0632 50.619 46.1982 51.154C46.3066 51.5807 46.4366 52.0024 46.5549 52.4257C46.6999 52.939 46.8382 53.454 46.9999 53.9623C47.1366 54.3923 47.2932 54.8157 47.4416 55.2407C47.6082 55.7407 47.7832 56.2323 47.9732 56.7223C48.1399 57.149 48.3216 57.5673 48.4982 57.9873C48.6999 58.4673 48.8966 58.9473 49.1132 59.419C49.3066 59.8407 49.5182 60.2523 49.7249 60.6707C49.9032 61.0307 50.0582 61.3973 50.2532 61.754C47.8018 70.5984 42.6291 78.4469 35.4683 84.1873ZM96.6665 38.1391C96.7046 51.5055 90.6513 64.1611 80.2215 72.5206L79.7115 72.9306C74.7232 76.9429 67.5636 76.7546 62.7932 72.4856C59.0457 69.1336 55.9022 65.1625 53.4999 60.7457C50.8493 55.8848 49.1307 50.5713 48.4332 45.079C48.2026 43.2547 48.087 41.4178 48.0866 39.579V16.2608C63.8944 11.2641 80.8586 11.2641 96.6665 16.2608V38.1391Z" fill="#666666"/>
<path d="M19.8133 46.1691L20.5383 45.0741C21.0473 44.3064 20.8377 43.2714 20.07 42.7625C19.3023 42.2535 18.2673 42.4631 17.7583 43.2308L17.035 44.3258C15.1044 47.2481 11.8358 49.006 8.33334 49.0058C7.41292 49.0058 6.66667 49.752 6.66667 50.6725C6.66667 51.5929 7.41292 52.3391 8.33334 52.3391C12.9533 52.3406 17.2654 50.0231 19.8133 46.1691Z" fill="#666666"/>
<path d="M37.415 67.3341C31.0923 63.0758 22.8194 63.0758 16.4967 67.3341C13.8227 69.131 13.1117 72.7554 14.9085 75.4293C15.9881 77.036 17.7944 78.0022 19.73 78.0091C20.6312 78.0087 21.52 77.7975 22.325 77.3925C25.2419 75.9375 28.6731 75.9375 31.59 77.3925C34.4602 78.8435 37.9633 77.6933 39.4144 74.8231C40.749 72.1833 39.8927 68.9625 37.4233 67.3341H37.415ZM36.2483 73.5691C35.5573 74.6095 34.1992 74.9718 33.0817 74.4141C29.2223 72.4866 24.681 72.4866 20.8217 74.4141C19.7044 74.9741 18.3448 74.6114 17.655 73.5691C16.8894 72.422 17.1975 70.8716 18.3433 70.1041C23.5444 66.602 30.349 66.602 35.55 70.1041C36.6994 70.8683 37.0119 72.4193 36.2483 73.5691Z" fill="#666666"/>
<path d="M45.605 57.7308L42.35 50.1375L42.3333 50.1092C42.1008 49.45 41.479 49.0083 40.78 49.0058C37.2779 49.0065 34.0096 47.2483 32.08 44.3258L31.3533 43.2308C30.8444 42.4636 29.8098 42.2544 29.0425 42.7633C28.2752 43.2723 28.066 44.3069 28.575 45.0742L29.3017 46.1692C31.3973 49.3269 34.7042 51.4788 38.44 52.1158L36.0317 57.7308C34.8979 60.3744 36.1219 63.4367 38.7654 64.5704C41.409 65.7042 44.4712 64.4802 45.605 61.8367C46.1673 60.5258 46.1673 59.0417 45.605 57.7308ZM42.3833 60.8192C41.7652 61.6831 40.5637 61.8823 39.7 61.2642C39.5283 61.1412 39.3779 60.991 39.255 60.8192C38.9004 60.2965 38.8375 59.6287 39.0883 59.0492L40.8117 55.0275L42.535 59.0492C42.7912 59.6262 42.734 60.2942 42.3833 60.8192Z" fill="#666666"/>
</g>
<defs>
<clipPath id="clip0">
<rect width="100" height="100" fill="white"/>
</clipPath>
</defs>
</svg>
