<svg width="100" height="100" viewBox="0 0 100 100" fill="none" xmlns="http://www.w3.org/2000/svg">
<path d="M17.5781 87.5H17.1875V82.8125C17.1875 81.5693 16.6936 80.377 15.8146 79.4979C14.9355 78.6189 13.7432 78.125 12.5 78.125H9.375C8.1318 78.125 6.93951 78.6189 6.06044 79.4979C5.18136 80.377 4.6875 81.5693 4.6875 82.8125V95.3125H23.4375V93.3594C23.4375 91.8054 22.8202 90.315 21.7213 89.2162C20.6225 88.1173 19.1321 87.5 17.5781 87.5Z" fill="#79D8EB"/>
<path d="M82.4219 87.5H82.8125V82.8125C82.8125 81.5693 83.3064 80.377 84.1854 79.4979C85.0645 78.6189 86.2568 78.125 87.5 78.125H90.625C91.8682 78.125 93.0605 78.6189 93.9396 79.4979C94.8186 80.377 95.3125 81.5693 95.3125 82.8125V95.3125H76.5625V93.3594C76.5625 91.8054 77.1798 90.315 78.2787 89.2162C79.3775 88.1173 80.8679 87.5 82.4219 87.5Z" fill="#79D8EB"/>
<path d="M76.5625 95.3125H23.4375V50H76.5625V95.3125Z" fill="#FAC850"/>
<path d="M23.4375 89.0625H37.5V95.3125H23.4375V89.0625Z" fill="#FA5D3F"/>
<path d="M62.5 89.0625H76.5625V95.3125H62.5V89.0625Z" fill="#FA5D3F"/>
<path d="M37.5 40.625H62.5V95.3125H37.5V40.625Z" fill="#FA5D3F"/>
<path d="M45.3125 82.8125H54.6875V95.3125H45.3125V82.8125Z" fill="#FAC850"/>
<path d="M50.0008 4.6875L54.3795 13.56L64.1709 14.9826L57.0858 21.8889L58.7584 31.6406L50.0008 27.0365L41.2432 31.6406L42.9156 21.8889L35.8307 14.9826L45.6219 13.56L50.0008 4.6875Z" fill="#FAC850"/>
<path d="M58.7582 33.2031C58.505 33.2031 58.2555 33.1415 58.0313 33.0236L50 28.8018L41.9696 33.0236C41.7115 33.1594 41.4206 33.2201 41.1298 33.1991C40.839 33.1781 40.5598 33.0762 40.3239 32.9048C40.088 32.7334 39.9048 32.4994 39.795 32.2293C39.6851 31.9592 39.6531 31.6638 39.7024 31.3764L41.2362 22.4344L34.7401 16.1016C34.5313 15.8981 34.3836 15.6403 34.3137 15.3573C34.2437 15.0742 34.2544 14.7773 34.3444 14.5C34.4345 14.2227 34.6003 13.9761 34.8232 13.7882C35.046 13.6002 35.317 13.4783 35.6055 13.4363L44.5838 12.1319L48.5996 3.99591C48.7287 3.73446 48.9283 3.51431 49.1759 3.36039C49.4235 3.20646 49.7093 3.12488 50.0008 3.12488C50.2924 3.12488 50.5781 3.20646 50.8257 3.36039C51.0734 3.51431 51.273 3.73446 51.402 3.99591L55.4172 12.1319L64.3955 13.4363C64.6841 13.4782 64.9552 13.6001 65.1781 13.788C65.401 13.9759 65.5669 14.2225 65.657 14.4998C65.7471 14.7771 65.7578 15.0741 65.6879 15.3571C65.6181 15.6402 65.4704 15.8981 65.2616 16.1016L58.7647 22.4344L60.2985 31.3764C60.337 31.6007 60.326 31.8307 60.2663 32.0503C60.2067 32.2699 60.0997 32.4738 59.953 32.6478C59.8063 32.8218 59.6234 32.9617 59.417 33.0576C59.2107 33.1535 58.9858 33.2032 58.7582 33.2031ZM50 25.474C50.2534 25.474 50.503 25.5356 50.7272 25.6535L56.6825 28.7844L55.5469 22.1531C55.5041 21.9035 55.5226 21.6471 55.6008 21.4062C55.6791 21.1653 55.8148 20.947 55.9961 20.7701L60.8131 16.0742L54.1549 15.1069C53.9042 15.0704 53.6662 14.9735 53.4612 14.8246C53.2563 14.6757 53.0906 14.4792 52.9785 14.252L50 8.21818L47.0223 14.2514C46.9102 14.4786 46.7446 14.6751 46.5396 14.824C46.3347 14.9729 46.0966 15.0698 45.8459 15.1063L39.1885 16.0742L44.0063 20.7707C44.1877 20.9476 44.3233 21.1659 44.4016 21.4068C44.4798 21.6477 44.4983 21.9041 44.4555 22.1537L43.3182 28.785L49.2735 25.6541C49.4975 25.536 49.7468 25.4742 50 25.474Z" fill="#666666"/>
<path d="M75.4545 21.875L78.4918 28.0295L85.2838 29.0164L80.3691 33.807L81.5293 40.5717L75.4545 37.3779L69.3795 40.5717L70.5396 33.807L65.625 29.0164L72.417 28.0295L75.4545 21.875Z" fill="#FAC850"/>
<path d="M88.5715 42.1875L90.6547 46.4082L95.3125 47.0852L91.942 50.3705L92.7377 55.0096L88.5715 52.8193L84.4055 55.0096L85.2012 50.3705L81.8307 47.0852L86.4885 46.4082L88.5715 42.1875Z" fill="#FAC850"/>
<path d="M24.5455 21.875L21.5082 28.0295L14.7162 29.0164L19.6309 33.807L18.4707 40.5717L24.5455 37.3779L30.6205 40.5717L29.4604 33.807L34.375 29.0164L27.583 28.0295L24.5455 21.875Z" fill="#FAC850"/>
<path d="M11.4285 42.1875L9.34531 46.4082L4.6875 47.0852L8.05801 50.3705L7.2623 55.0096L11.4285 52.8193L15.5945 55.0096L14.7988 50.3705L18.1693 47.0852L13.5115 46.4082L11.4285 42.1875Z" fill="#FAC850"/>
<path d="M43.75 35.9375H56.25V45.3125H43.75V35.9375Z" fill="#FAC850"/>
<path d="M42.1875 62.5H45.3125V65.625H42.1875V62.5Z" fill="#666666"/>
<path d="M48.4375 62.5H51.5625V65.625H48.4375V62.5Z" fill="#666666"/>
<path d="M54.6875 62.5H57.8125V65.625H54.6875V62.5Z" fill="#666666"/>
<path d="M42.1875 68.75H45.3125V71.875H42.1875V68.75Z" fill="#666666"/>
<path d="M48.4375 68.75H51.5625V71.875H48.4375V68.75Z" fill="#666666"/>
<path d="M54.6875 68.75H57.8125V71.875H54.6875V68.75Z" fill="#666666"/>
<path d="M42.1875 75H45.3125V78.125H42.1875V75Z" fill="#666666"/>
<path d="M48.4375 75H51.5625V78.125H48.4375V75Z" fill="#666666"/>
<path d="M54.6875 75H57.8125V78.125H54.6875V75Z" fill="#666666"/>
<path d="M42.1875 50H45.3125V53.125H42.1875V50Z" fill="#666666"/>
<path d="M48.4375 50H51.5625V53.125H48.4375V50Z" fill="#666666"/>
<path d="M54.6875 50H57.8125V53.125H54.6875V50Z" fill="#666666"/>
<path d="M42.1875 56.25H45.3125V59.375H42.1875V56.25Z" fill="#666666"/>
<path d="M48.4375 56.25H51.5625V59.375H48.4375V56.25Z" fill="#666666"/>
<path d="M54.6875 56.25H57.8125V59.375H54.6875V56.25Z" fill="#666666"/>
<path d="M64.5343 30.1354L68.8607 34.3526L67.8394 40.3075C67.7901 40.5949 67.8221 40.8903 67.932 41.1604C68.0418 41.4305 68.225 41.6645 68.4609 41.8359C68.6968 42.0073 68.976 42.1092 69.2668 42.1302C69.5576 42.1512 69.8485 42.0905 70.1066 41.9548L75.4544 39.1432L80.8023 41.9548C81.0603 42.0904 81.3512 42.1511 81.642 42.1301C81.9328 42.1091 82.2119 42.0071 82.4478 41.8357C82.6836 41.6643 82.8668 41.4304 82.9766 41.1603C83.0865 40.8902 83.1186 40.5948 83.0693 40.3075L82.0478 34.3526L86.3743 30.1354C86.5831 29.9319 86.7308 29.674 86.8007 29.391C86.8706 29.1079 86.8599 28.8109 86.7698 28.5336C86.6797 28.2563 86.5138 28.0097 86.2909 27.8218C86.0679 27.6339 85.7969 27.5121 85.5083 27.4702L79.5294 26.6016L76.8554 21.1835C76.7264 20.9221 76.5267 20.702 76.2792 20.5481C76.0316 20.3942 75.7458 20.3126 75.4543 20.3126C75.1628 20.3126 74.8771 20.3942 74.6295 20.5481C74.3819 20.702 74.1823 20.9221 74.0533 21.1835L71.3792 26.6016L65.4003 27.4704C65.1118 27.5123 64.8407 27.6341 64.6178 27.822C64.3949 28.0099 64.229 28.2565 64.1389 28.5338C64.0488 28.8111 64.038 29.1081 64.1079 29.3912C64.1778 29.6742 64.3255 29.9321 64.5343 30.1356V30.1354ZM72.6415 29.5758C72.8922 29.5394 73.1303 29.4426 73.3353 29.2937C73.5403 29.1448 73.706 28.9483 73.8181 28.7212L75.4544 25.4055L77.0907 28.7212C77.2029 28.9483 77.3685 29.1448 77.5735 29.2937C77.7784 29.4426 78.0164 29.5394 78.2671 29.5758L81.9259 30.1075L79.2784 32.6883C79.0971 32.8652 78.9614 33.0835 78.8831 33.3244C78.8049 33.5653 78.7864 33.8217 78.8292 34.0714L79.4542 37.7155L76.1816 35.9948C75.9573 35.8769 75.7078 35.8153 75.4545 35.8153C75.2012 35.8153 74.9517 35.8769 74.7275 35.9948L71.4548 37.7155L72.0798 34.0714C72.1227 33.8217 72.1041 33.5653 72.0259 33.3244C71.9476 33.0835 71.812 32.8652 71.6306 32.6883L68.9827 30.1075L72.6415 29.5758Z" fill="#666666"/>
<path d="M81.6059 45.539C81.3174 45.5809 81.0464 45.7028 80.8236 45.8907C80.6007 46.0786 80.4348 46.3252 80.3448 46.6024C80.2547 46.8797 80.244 47.1766 80.3138 47.4596C80.3837 47.7427 80.5313 48.0005 80.7401 48.204L83.5223 50.9161L82.8655 54.7462C82.8162 55.0336 82.8483 55.329 82.9581 55.599C83.0679 55.8691 83.2511 56.1031 83.487 56.2744C83.7228 56.4458 84.002 56.5478 84.2927 56.5688C84.5835 56.5899 84.8744 56.5291 85.1325 56.3935L88.5715 54.5855L92.0106 56.3935C92.2687 56.5291 92.5595 56.5898 92.8503 56.5687C93.141 56.5476 93.4201 56.4457 93.6559 56.2743C93.8917 56.1029 94.0749 55.869 94.1847 55.5989C94.2946 55.3289 94.3267 55.0335 94.2774 54.7462L93.6206 50.9169L96.4032 48.2032C96.6119 47.9997 96.7596 47.7419 96.8294 47.4588C96.8993 47.1758 96.8885 46.8788 96.7984 46.6016C96.7083 46.3243 96.5425 46.0778 96.3196 45.8899C96.0967 45.7019 95.8257 45.5801 95.5372 45.5382L91.6922 44.9806L89.9735 41.4964C89.8445 41.2349 89.6448 41.0148 89.3972 40.8609C89.1496 40.7069 88.8639 40.6254 88.5723 40.6254C88.2807 40.6254 87.995 40.7069 87.7474 40.8609C87.4998 41.0148 87.3002 41.2349 87.1711 41.4964L85.4524 44.9806L81.6059 45.539ZM87.8907 47.0999L88.5725 45.7183L89.2545 47.0999C89.3665 47.3269 89.532 47.5233 89.7367 47.6722C89.9414 47.8211 90.1793 47.918 90.4297 47.9546L91.9545 48.1763L90.8512 49.2517C90.6698 49.4285 90.5341 49.6469 90.4559 49.8878C90.3776 50.1288 90.3591 50.3852 90.402 50.6349L90.6625 52.1534L89.2987 51.4364C89.0745 51.3186 88.8249 51.257 88.5716 51.257C88.3183 51.257 88.0688 51.3186 87.8446 51.4364L86.4807 52.1534L86.7411 50.6349C86.7839 50.3852 86.7654 50.1288 86.6872 49.8878C86.6089 49.6469 86.4733 49.4285 86.2918 49.2517L85.1887 48.1763L86.7135 47.9546C86.9643 47.9183 87.2026 47.8215 87.4076 47.6726C87.6127 47.5237 87.7785 47.3272 87.8907 47.0999Z" fill="#666666"/>
<path d="M13.6256 30.1355L17.9521 34.3526L16.9307 40.3075C16.8814 40.5949 16.9134 40.8903 17.0233 41.1604C17.1331 41.4304 17.3163 41.6644 17.5522 41.8358C17.788 42.0071 18.0671 42.1091 18.3579 42.1301C18.6487 42.1512 18.9396 42.0904 19.1976 41.9548L24.5455 39.1433L29.8934 41.9548C30.1514 42.0905 30.4423 42.1513 30.7331 42.1303C31.024 42.1093 31.3031 42.0073 31.539 41.8359C31.7749 41.6645 31.9581 41.4305 32.0679 41.1604C32.1778 40.8903 32.2099 40.5949 32.1605 40.3075L31.1392 34.3526L35.4656 30.1355C35.6744 29.932 35.8221 29.6741 35.892 29.391C35.9619 29.1079 35.9512 28.811 35.8611 28.5337C35.771 28.2564 35.6051 28.0098 35.3821 27.8219C35.1592 27.6339 34.8881 27.5121 34.5996 27.4702L28.6207 26.6017L25.9467 21.1837C25.8176 20.9223 25.618 20.7022 25.3704 20.5483C25.1228 20.3944 24.8371 20.3129 24.5456 20.3129C24.2541 20.3129 23.9684 20.3944 23.7208 20.5483C23.4732 20.7022 23.2736 20.9223 23.1445 21.1837L20.4705 26.6017L14.4922 27.4702C14.2036 27.5121 13.9326 27.6339 13.7096 27.8219C13.4867 28.0098 13.3208 28.2564 13.2307 28.5337C13.1406 28.811 13.1299 29.1079 13.1998 29.391C13.2697 29.6741 13.4174 29.932 13.6262 30.1355H13.6256ZM21.7328 29.5759C21.9835 29.5395 22.2215 29.4426 22.4265 29.2937C22.6314 29.1448 22.7971 28.9483 22.9092 28.7212L24.5455 25.4056L26.1818 28.7212C26.294 28.9484 26.4596 29.1449 26.6646 29.2938C26.8696 29.4427 27.1077 29.5395 27.3584 29.5759L31.0172 30.1075L28.3697 32.6884C28.1883 32.8652 28.0527 33.0835 27.9744 33.3245C27.8962 33.5654 27.8777 33.8217 27.9205 34.0714L28.5455 37.7155L25.2728 35.9948C25.0486 35.8771 24.7991 35.8155 24.5458 35.8155C24.2925 35.8155 24.043 35.8771 23.8187 35.9948L20.5469 37.715L21.1719 34.0708C21.2147 33.8211 21.1962 33.5648 21.1179 33.3239C21.0397 33.0829 20.904 32.8646 20.7226 32.6878L18.074 30.1075L21.7328 29.5759Z" fill="#666666"/>
<path d="M3.59685 48.2032L6.37908 50.9161L5.72263 54.7462C5.67331 55.0336 5.70538 55.329 5.81522 55.5991C5.92507 55.8692 6.10829 56.1032 6.34418 56.2746C6.58007 56.446 6.85921 56.5479 7.15003 56.569C7.44085 56.59 7.73175 56.5292 7.98982 56.3935L11.4289 54.5855L14.8679 56.3935C15.126 56.529 15.4168 56.5897 15.7076 56.5686C15.9983 56.5475 16.2773 56.4455 16.5131 56.2741C16.7489 56.1028 16.932 55.8689 17.0419 55.5989C17.1517 55.3288 17.1838 55.0335 17.1345 54.7462L16.4777 50.9161L19.2599 48.2032C19.4687 47.9997 19.6163 47.7419 19.6862 47.4589C19.756 47.1758 19.7453 46.8789 19.6553 46.6016C19.5652 46.3244 19.3993 46.0779 19.1765 45.8899C18.9536 45.702 18.6826 45.5802 18.3941 45.5382L14.549 44.9806L12.8302 41.4964C12.7012 41.2349 12.5016 41.0148 12.254 40.8609C12.0064 40.7069 11.7206 40.6254 11.4291 40.6254C11.1375 40.6254 10.8518 40.7069 10.6042 40.8609C10.3565 41.0148 10.1569 41.2349 10.0279 41.4964L8.30916 44.9806L4.46287 45.539C4.17452 45.581 3.90368 45.7029 3.68093 45.8907C3.45818 46.0786 3.2924 46.325 3.20232 46.6021C3.11225 46.8792 3.10146 47.176 3.17117 47.459C3.24089 47.7419 3.38833 47.9997 3.59685 48.2032ZM9.57029 47.9546C9.82096 47.9182 10.059 47.8213 10.264 47.6724C10.4689 47.5235 10.6345 47.3271 10.7467 47.0999L11.4287 45.7183L12.1105 47.0999C12.2226 47.3271 12.3883 47.5235 12.5932 47.6724C12.7982 47.8213 13.0362 47.9182 13.2869 47.9546L14.8117 48.1763L13.7086 49.2517C13.5272 49.4285 13.3915 49.6469 13.3132 49.8878C13.235 50.1288 13.2165 50.3852 13.2594 50.6349L13.5197 52.1534L12.1558 51.4364C11.9316 51.3186 11.6821 51.257 11.4288 51.257C11.1755 51.257 10.926 51.3186 10.7017 51.4364L9.33787 52.1534L9.59841 50.6349C9.64129 50.3852 9.6228 50.1288 9.54454 49.8878C9.46628 49.6469 9.3306 49.4285 9.14919 49.2517L8.04587 48.1763L9.57029 47.9546Z" fill="#666666"/>
<path d="M28.125 56.25H32.8125V59.375H28.125V56.25Z" fill="#666666"/>
<path d="M28.125 64.0625H32.8125V67.1875H28.125V64.0625Z" fill="#666666"/>
<path d="M28.125 71.875H32.8125V75H28.125V71.875Z" fill="#666666"/>
<path d="M28.125 79.6875H32.8125V82.8125H28.125V79.6875Z" fill="#666666"/>
<path d="M90.625 76.5626H87.5C85.843 76.5645 84.2543 77.2236 83.0826 78.3953C81.9109 79.567 81.2519 81.1556 81.25 82.8126V86.0302C80.1234 86.21 79.0537 86.6484 78.125 87.3111V79.6876H75V87.5001H64.0625V51.5626H75V76.5626H78.125V50.0001C78.125 49.5857 77.9604 49.1883 77.6674 48.8953C77.3743 48.6022 76.9769 48.4376 76.5625 48.4376H64.0625V40.6251C64.0625 40.2107 63.8979 39.8133 63.6049 39.5203C63.3118 39.2272 62.9144 39.0626 62.5 39.0626H57.8125V35.9376C57.8125 35.5232 57.6479 35.1258 57.3549 34.8328C57.0618 34.5397 56.6644 34.3751 56.25 34.3751H43.75C43.3356 34.3751 42.9382 34.5397 42.6451 34.8328C42.3521 35.1258 42.1875 35.5232 42.1875 35.9376V39.0626H37.5C37.0856 39.0626 36.6882 39.2272 36.3951 39.5203C36.1021 39.8133 35.9375 40.2107 35.9375 40.6251V48.4376H23.4375C23.0231 48.4376 22.6257 48.6022 22.3326 48.8953C22.0396 49.1883 21.875 49.5857 21.875 50.0001V59.3751H25V51.5626H35.9375V87.5001H25V62.5001H21.875V87.3111C20.9463 86.6484 19.8766 86.21 18.75 86.0302V82.8126C18.7481 81.1556 18.0891 79.567 16.9174 78.3953C15.7457 77.2236 14.157 76.5645 12.5 76.5626H9.375C7.71797 76.5645 6.12934 77.2236 4.95764 78.3953C3.78594 79.567 3.12686 81.1556 3.125 82.8126V95.3126C3.125 95.727 3.28962 96.1245 3.58265 96.4175C3.87567 96.7105 4.2731 96.8751 4.6875 96.8751H95.3125C95.7269 96.8751 96.1243 96.7105 96.4174 96.4175C96.7104 96.1245 96.875 95.727 96.875 95.3126V82.8126C96.8731 81.1556 96.2141 79.567 95.0424 78.3953C93.8707 77.2236 92.282 76.5645 90.625 76.5626ZM45.3125 37.5001H54.6875V43.7501H45.3125V37.5001ZM6.25 82.8126C6.25098 81.9841 6.58054 81.1898 7.16638 80.604C7.75221 80.0182 8.5465 79.6886 9.375 79.6876H12.5C13.3285 79.6886 14.1228 80.0182 14.7086 80.604C15.2945 81.1898 15.624 81.9841 15.625 82.8126V86.0302C13.8828 86.3112 12.2974 87.2029 11.1523 88.5456C10.0073 89.8884 9.37729 91.5948 9.375 93.3595V93.7501H6.25V82.8126ZM12.5 93.7501V93.3595C12.5013 92.2203 12.9544 91.1281 13.76 90.3226C14.5655 89.517 15.6577 89.0639 16.7969 89.0626H17.5781C18.7173 89.0639 19.8095 89.517 20.615 90.3226C21.4206 91.1281 21.8737 92.2203 21.875 93.3595V93.7501H12.5ZM25 90.6251H35.9375V93.7501H25V90.6251ZM39.0625 42.1876H42.1875V45.3126C42.1875 45.727 42.3521 46.1245 42.6451 46.4175C42.9382 46.7105 43.3356 46.8751 43.75 46.8751H56.25C56.6644 46.8751 57.0618 46.7105 57.3549 46.4175C57.6479 46.1245 57.8125 45.727 57.8125 45.3126V42.1876H60.9375V93.7501H56.25V82.8126C56.25 82.3982 56.0854 82.0008 55.7924 81.7078C55.4993 81.4147 55.1019 81.2501 54.6875 81.2501H45.3125C44.8981 81.2501 44.5007 81.4147 44.2076 81.7078C43.9146 82.0008 43.75 82.3982 43.75 82.8126V93.7501H39.0625V42.1876ZM46.875 93.7501V84.3751H53.125V93.7501H46.875ZM64.0625 90.6251H75V93.7501H64.0625V90.6251ZM78.125 93.7501V93.3595C78.1263 92.2203 78.5794 91.1281 79.385 90.3226C80.1905 89.517 81.2827 89.0639 82.4219 89.0626H83.2031C84.3423 89.0639 85.4345 89.517 86.24 90.3226C87.0456 91.1281 87.4987 92.2203 87.5 93.3595V93.7501H78.125ZM93.75 93.7501H90.625V93.3595C90.6227 91.5948 89.9927 89.8884 88.8477 88.5456C87.7026 87.2029 86.1172 86.3112 84.375 86.0302V82.8126C84.376 81.9841 84.7055 81.1898 85.2914 80.604C85.8772 80.0182 86.6715 79.6886 87.5 79.6876H90.625C91.4535 79.6886 92.2478 80.0182 92.8336 80.604C93.4195 81.1898 93.749 81.9841 93.75 82.8126V93.7501Z" fill="#666666"/>
<path d="M67.1875 71.875H71.875V75H67.1875V71.875Z" fill="#666666"/>
<path d="M67.1875 79.6875H71.875V82.8125H67.1875V79.6875Z" fill="#666666"/>
<path d="M67.1875 56.25H71.875V59.375H67.1875V56.25Z" fill="#666666"/>
<path d="M67.1875 64.0625H71.875V67.1875H67.1875V64.0625Z" fill="#666666"/>
</svg>
