<svg width="100" height="100" viewBox="0 0 100 100" fill="none" xmlns="http://www.w3.org/2000/svg">
<g clip-path="url(#clip0)">
<path d="M39.4797 13.1949C39.4797 13.1949 43.7255 17.8225 47.0736 24.9341H31.887C35.2339 17.8225 39.4797 13.1949 39.4797 13.1949Z" fill="#FF5249"/>
<path d="M31.8871 24.933H47.0713C49.2497 29.5582 51.0475 35.2352 51.0475 41.3678C51.0475 47.0201 49.9265 52.6808 47.969 57.8025H30.9905C29.5465 54.0221 28.5948 50.0667 28.1596 46.0364C27.9946 44.4858 27.9116 42.9274 27.9108 41.3678C27.9108 35.2352 29.7075 29.5582 31.8871 24.933Z" fill="white"/>
<path d="M39.4797 31.9777C40.395 31.9777 41.2897 32.2531 42.0507 32.769C42.8117 33.285 43.4048 34.0183 43.7551 34.8764C44.1053 35.7344 44.197 36.6785 44.0184 37.5894C43.8398 38.5003 43.3991 39.3369 42.7519 39.9936C42.1048 40.6503 41.2802 41.0976 40.3825 41.2787C39.4849 41.4599 38.5544 41.3669 37.7088 41.0115C36.8633 40.6561 36.1405 40.0543 35.6321 39.2821C35.1236 38.5099 34.8522 37.602 34.8522 36.6733C34.8522 35.428 35.3397 34.2336 36.2076 33.353C37.0754 32.4724 38.2524 31.9777 39.4797 31.9777Z" fill="#7BD8E8"/>
<path d="M51.0486 46.0646C61.5891 48.2035 57.7841 60.3593 53.3624 64.8472C53.3624 60.1516 49.6962 57.8037 49.6962 57.8037H47.9713C49.4145 54.0232 50.3654 50.0678 50.7999 46.0376L51.0486 46.0646Z" fill="#FF5249"/>
<path d="M36.0299 64.8471H35.765C34.9818 64.8471 34.2217 64.4656 33.8226 63.7812C32.7206 61.8694 31.7734 59.8699 30.9905 57.8025H47.9737C47.1903 59.87 46.2428 61.8694 45.1404 63.7812C44.7413 64.4656 43.9835 64.846 43.198 64.8471H36.0299Z" fill="#FF5249"/>
<path d="M27.9108 46.0645L28.1595 46.0364C28.5948 50.0667 29.5464 54.0221 30.9904 57.8025H29.2632C29.2632 57.8025 25.597 60.1503 25.597 64.846C21.1754 60.3652 17.3704 48.2034 27.9108 46.0645Z" fill="#FF5249"/>
<path d="M40.6575 53.0869C40.6575 52.8547 40.5896 52.6277 40.4625 52.4347C40.3354 52.2416 40.1547 52.0912 39.9433 52.0023C39.7319 51.9135 39.4993 51.8902 39.2749 51.9355C39.0505 51.9808 38.8443 52.0926 38.6825 52.2568C38.5207 52.421 38.4106 52.6301 38.3659 52.8579C38.3213 53.0856 38.3442 53.3216 38.4318 53.5361C38.5193 53.7506 38.6676 53.934 38.8578 54.063C39.0481 54.1919 39.2718 54.2608 39.5006 54.2608C39.8074 54.2608 40.1017 54.1371 40.3186 53.917C40.5356 53.6968 40.6575 53.3982 40.6575 53.0869Z" fill="#666666"/>
<path d="M45.285 36.6522C45.285 35.4913 44.9457 34.3564 44.3101 33.3912C43.6745 32.426 42.7711 31.6736 41.7141 31.2294C40.6572 30.7851 39.4941 30.6689 38.372 30.8954C37.25 31.1219 36.2193 31.6809 35.4103 32.5017C34.6013 33.3226 34.0504 34.3685 33.8272 35.5071C33.604 36.6456 33.7186 37.8258 34.1564 38.8983C34.5942 39.9709 35.3356 40.8876 36.2869 41.5325C37.2381 42.1775 38.3565 42.5217 39.5005 42.5217C41.0347 42.5217 42.506 41.9033 43.5908 40.8026C44.6756 39.7018 45.285 38.2089 45.285 36.6522ZM36.0299 36.6522C36.0299 35.9556 36.2334 35.2747 36.6148 34.6956C36.9961 34.1164 37.5382 33.665 38.1724 33.3985C38.8065 33.1319 39.5044 33.0622 40.1776 33.1981C40.8509 33.334 41.4693 33.6694 41.9547 34.1619C42.4401 34.6544 42.7706 35.2819 42.9045 35.9651C43.0384 36.6482 42.9697 37.3564 42.707 37.9999C42.4443 38.6434 41.9995 39.1934 41.4287 39.5804C40.858 39.9673 40.187 40.1739 39.5005 40.1739C38.58 40.1739 37.6973 39.8029 37.0464 39.1424C36.3955 38.4819 36.0299 37.5862 36.0299 36.6522Z" fill="#666666"/>
<path d="M26.0596 65.9096C26.2709 65.821 26.4517 65.6707 26.5789 65.4778C26.7062 65.285 26.7743 65.0582 26.7745 64.8261C26.7745 61.491 28.9032 59.5435 29.6517 58.9565H30.2302C30.9736 60.8187 31.8498 62.6235 32.8517 64.3565C33.5643 65.3227 45.552 65.4389 46.1559 64.3565C46.7598 63.2742 48 60.8888 48.7775 58.9565H49.3559C50.1056 59.5435 52.2343 61.4922 52.2343 64.8261C52.2343 65.0582 52.3022 65.2851 52.4293 65.4782C52.5564 65.6712 52.7371 65.8216 52.9485 65.9104C53.1598 65.9992 53.3924 66.0225 53.6168 65.9772C53.8412 65.9319 54.0473 65.8202 54.2091 65.656C57.4484 62.3691 60.0456 55.821 58.5972 50.968C57.969 48.8609 56.3216 46.1879 52.0781 45.0738C52.1822 43.826 52.2343 42.5769 52.2343 41.3478C52.2343 35.8657 50.8587 30.1663 48.1446 24.4071C44.7573 17.2169 40.5253 12.5682 40.3472 12.3745C40.2389 12.2565 40.1078 12.1623 39.9622 12.098C39.8165 12.0336 39.6592 12.0004 39.5003 12.0004C39.3414 12.0004 39.1842 12.0336 39.0385 12.098C38.8928 12.1623 38.7618 12.2565 38.6535 12.3745C38.4753 12.5682 34.248 17.2169 30.863 24.4071C28.1489 30.1663 26.7734 35.8657 26.7734 41.3478C26.7734 42.5757 26.8266 43.8248 26.9295 45.0738C22.6861 46.1879 21.041 48.8609 20.4105 50.9739C18.9586 55.821 21.5616 62.3703 24.7985 65.656C24.9605 65.8201 25.1667 65.9318 25.3912 65.9769C25.6156 66.0221 25.8482 65.9986 26.0596 65.9096ZM44.1626 63.1627C44.0594 63.32 43.918 63.4476 43.7521 63.5334C43.5861 63.6191 43.4012 63.66 43.2151 63.6522H35.7856C35.5995 63.66 35.4146 63.6191 35.2486 63.5334C35.0826 63.4476 34.9413 63.32 34.8381 63.1627C34.0524 61.8058 33.35 60.4011 32.7348 58.9565H46.2612C45.648 60.4012 44.9471 61.806 44.1626 63.1627ZM56.3748 51.6477C57.3061 54.7668 56.0832 59.0035 54.1327 62.0146C53.4386 59.7219 51.7356 57.6406 50.315 56.7754C50.1143 56.6565 49.8842 56.5986 49.6521 56.6087C50.6713 53.6315 51.3956 50.5587 51.8143 47.4357C54.2206 48.1565 55.7535 49.5652 56.3748 51.6477ZM45.22 23.7391H33.7818C35.396 20.6316 37.3116 17.6952 39.5003 14.9735C41.6898 17.6949 43.6058 20.6313 45.22 23.7391ZM29.0871 41.3478C29.0871 36.4291 30.2868 31.298 32.6458 26.087H46.3549C48.7138 31.298 49.9135 36.4291 49.9124 41.3478C49.9114 42.8651 49.8307 44.3812 49.6706 45.8897C49.2769 49.5522 48.4428 53.152 47.1867 56.6087H31.8001C30.545 53.1519 29.7124 49.5521 29.3208 45.8897C29.1635 44.381 29.0855 42.8649 29.0871 41.3478ZM22.6247 51.6477C23.2472 49.5652 24.78 48.1565 27.1875 47.4357C27.607 50.5588 28.3321 53.6316 29.3521 56.6087C29.1104 56.5984 28.8712 56.6613 28.6649 56.7895C26.8642 58.0567 25.5288 59.8944 24.868 62.0146C22.9174 59.0035 21.6946 54.768 22.6247 51.6477Z" fill="#666666"/>
<path d="M40.6575 48.3913V46.0434C40.6575 45.7321 40.5356 45.4335 40.3186 45.2133C40.1017 44.9932 39.8074 44.8695 39.5006 44.8695C39.1938 44.8695 38.8995 44.9932 38.6825 45.2133C38.4656 45.4335 38.3437 45.7321 38.3437 46.0434V48.3913C38.3437 48.7026 38.4656 49.0012 38.6825 49.2213C38.8995 49.4415 39.1938 49.5652 39.5006 49.5652C39.8074 49.5652 40.1017 49.4415 40.3186 49.2213C40.5356 49.0012 40.6575 48.7026 40.6575 48.3913Z" fill="#666666"/>
</g>
<path d="M98.778 92.8875L70.3408 64.45C75.8492 57.6459 79.1657 49 79.1657 39.5834C79.1657 17.7584 61.4075 0 39.5828 0C17.758 0 0 17.7582 0 39.5832C0 61.4082 17.7582 79.1666 39.583 79.1666C48.9995 79.1666 57.6453 75.85 64.4493 70.3416L92.8865 98.7791C93.699 99.5916 94.7656 100 95.8323 100C96.8991 100 97.9657 99.5916 98.7782 98.7791C100.407 97.15 100.407 94.5166 98.778 92.8875ZM39.583 70.8332C22.3498 70.8332 8.33331 56.8166 8.33331 39.5832C8.33331 22.3498 22.3498 8.3332 39.583 8.3332C56.8162 8.3332 70.8326 22.3498 70.8326 39.5832C70.8326 56.8166 56.816 70.8332 39.583 70.8332Z" fill="#666666"/>
<defs>
<clipPath id="clip0">
<rect width="39" height="54" fill="white" transform="translate(20 12)"/>
</clipPath>
</defs>
</svg>
