<svg width="100" height="100" viewBox="0 0 100 100" fill="none" xmlns="http://www.w3.org/2000/svg">
<path d="M23.3333 1.66663V60H10L50 98.3333L90 60H76.6667V1.66663H23.3333ZM50 40C54.6023 40 58.3333 43.731 58.3333 48.3333C58.3333 52.9356 54.6023 56.6666 50 56.6666C45.3977 56.6666 41.6667 52.9356 41.6667 48.3333C41.6667 52.9356 45.3977 56.6666 50 56.6666C54.6023 56.6666 58.3333 52.9356 58.3333 48.3333C58.3333 43.731 54.6023 40 50 40C45.3977 40 41.6667 36.2689 41.6667 31.6666C41.6667 27.0643 45.3977 23.3333 50 23.3333C54.6023 23.3333 58.3333 27.0643 58.3333 31.6666C58.3333 27.0643 54.6023 23.3333 50 23.3333C45.3977 23.3333 41.6667 27.0643 41.6667 31.6666C41.6667 36.2689 45.3977 40 50 40Z" fill="#FF3051"/>
<path d="M50 100C49.5702 100 49.1571 99.834 48.8467 99.5367L8.84666 61.2033C8.18208 60.5665 8.15958 59.5115 8.79645 58.8469C9.11083 58.5187 9.54562 58.3333 9.99999 58.3333H21.6667V1.66667C21.6667 0.74625 22.4129 0 23.3333 0H76.6667C77.5871 0 78.3333 0.74625 78.3333 1.66667V58.3333H90C90.9204 58.3333 91.6667 59.0794 91.6669 59.9998C91.6669 60.4542 91.4815 60.889 91.1533 61.2033L51.1533 99.5367C50.8429 99.834 50.4298 100 50 100ZM14.1467 61.6667L50 96.025L85.8533 61.6667H76.6667C75.7462 61.6667 75 60.9204 75 60V3.33333H25V60C25 60.9204 24.2537 61.6667 23.3333 61.6667H14.1467Z" fill="#666666"/>
<path d="M50 38.3334C46.3181 38.3334 43.3333 35.3486 43.3333 31.6667C43.3333 27.9848 46.3181 25 50 25C53.6819 25 56.6667 27.9848 56.6667 31.6667H60C59.991 26.7923 56.4721 22.6332 51.6667 21.8167V18.3334H48.3333V21.8167C42.8933 22.7692 39.2552 27.9513 40.2077 33.3915C41.0417 38.1546 45.1644 41.6388 50 41.6667C53.6819 41.6667 56.6667 44.6515 56.6667 48.3334C56.6667 52.0153 53.6819 55 50 55C46.3181 55 43.3333 52.0153 43.3333 48.3334H40C40.009 53.2078 43.5279 57.3669 48.3333 58.1834V61.6667H51.6667V58.1834C57.1067 57.2309 60.7448 52.0488 59.7923 46.6086C58.9583 41.8455 54.8356 38.3613 50 38.3334Z" fill="#666666"/>
<path d="M28.3333 6.66663H31.6666V9.99996H28.3333V6.66663Z" fill="#666666"/>
<path d="M35 6.66663H38.3333V9.99996H35V6.66663Z" fill="#666666"/>
<path d="M41.6666 6.66663H45V9.99996H41.6666V6.66663Z" fill="#666666"/>
<path d="M48.3333 6.66663H51.6666V9.99996H48.3333V6.66663Z" fill="#231F20"/>
<path d="M48.3333 6.66663H51.6666V9.99996H48.3333V6.66663Z" fill="#666666"/>
<path d="M55 6.66663H58.3333V9.99996H55V6.66663Z" fill="#666666"/>
<path d="M61.6666 6.66663H65V9.99996H61.6666V6.66663Z" fill="#666666"/>
<path d="M68.3333 6.66663H71.6666V9.99996H68.3333V6.66663Z" fill="#666666"/>
</svg>
