<svg width="102" height="14" viewBox="0 0 102 14" fill="none" xmlns="http://www.w3.org/2000/svg">
<path d="M0.91394 13.228L12.7068 1.43507C13.0974 1.04455 13.7305 1.04455 14.121 1.43507L25.2068 12.5209C25.5974 12.9114 26.2305 12.9114 26.621 12.5209L37.7068 1.43507C38.0974 1.04455 38.7305 1.04455 39.121 1.43507L50.2068 12.5209C50.5974 12.9114 51.2305 12.9114 51.621 12.5209L62.7068 1.43507C63.0974 1.04455 63.7305 1.04455 64.121 1.43507L75.2068 12.5209C75.5974 12.9114 76.2305 12.9114 76.621 12.5209L87.7068 1.43507C88.0974 1.04455 88.7305 1.04455 89.121 1.43507L100.914 13.228" stroke="#FF7527" stroke-width="2"/>
</svg>
