<svg width="100" height="100" viewBox="0 0 100 100" fill="none" xmlns="http://www.w3.org/2000/svg">
<path d="M26.5152 49.2169C26.0861 43.1792 21.6084 38.2573 15.5557 38.2573C9.50292 38.2573 5.02518 43.1792 4.59608 49.2169C4.34042 52.8165 4.59608 58.6108 3.03046 61.7421C3.03046 61.7421 4.59608 64.8733 10.3701 66.4433L20.7728 66.439C26.5152 64.8733 28.0808 61.7421 28.0808 61.7421C26.5152 58.6108 26.7709 52.8165 26.5152 49.2169Z" fill="#694B4B"/>
<path d="M13.99 49.2168C7.95643 46.2 9.19823 40.2893 13.4969 38.46C8.51014 39.433 4.97479 43.8873 4.59608 49.2168C4.34042 52.8164 4.59608 58.6108 3.03046 61.742C3.03046 61.742 4.59608 64.8733 10.3701 66.4432L15.315 66.4412L13.99 49.2168Z" fill="#5A4146"/>
<path d="M27.05 70.2076L21.9834 67.6744C20.9225 67.1439 20.2523 66.0595 20.2523 64.8734L20.2525 60.1761H10.8588V64.8734C10.8588 66.0594 10.1887 67.1435 9.12793 67.674L4.06113 70.2074C2.46992 71.0031 1.46484 72.6293 1.46484 74.4084V85.2265H29.6465V74.4086C29.6465 72.6297 28.6414 71.0033 27.05 70.2076Z" fill="#E6AF78"/>
<path d="M29.6465 74.4088C29.6465 72.6297 28.6412 71.0033 27.05 70.2076L21.9834 67.6744C21.6918 67.5287 21.4379 67.3344 21.2113 67.1145L19.4144 69.1145C17.2922 71.4766 13.8193 71.4764 11.6971 69.1145L9.89999 67.1143C9.67323 67.3342 9.41932 67.5285 9.12811 67.6742L4.06112 70.2076C2.4701 71.0031 1.46503 72.6295 1.46503 74.4084V85.2268H29.6467L29.6465 74.4088Z" fill="#D5DCED"/>
<path d="M15.5556 63.3076C11.9676 63.3076 8.8492 61.2959 7.26717 58.3388C6.19178 56.3287 6.89295 53.807 8.75682 52.4943C9.11443 52.2423 9.48396 51.955 9.84744 51.6306C10.967 50.6316 11.6226 49.5781 11.9922 48.806C12.3088 48.1447 13.0383 47.7713 13.7488 47.9523C19.2767 49.3609 23.0361 52.24 24.3908 53.4062C24.7508 53.7162 24.958 54.1724 24.9215 54.6461C24.5478 59.492 20.4974 63.3076 15.5556 63.3076Z" fill="#F0C087"/>
<path d="M24.3891 53.4047C23.0334 52.2377 19.277 49.3623 13.7549 47.9537C13.0409 47.7715 12.3082 48.1473 11.9897 48.8117C11.7094 49.3959 11.2463 50.1404 10.559 50.9002C10.5588 50.902 10.5584 50.9037 10.5582 50.9055C10.345 51.1473 10.1178 51.3895 9.84769 51.6307C9.49906 51.9416 9.14827 52.223 8.8014 52.4629C6.59183 53.9914 6.25999 56.7951 7.6141 58.9248C9.0387 61.1652 11.3918 62.7568 14.1315 63.1758C12.2571 61.9006 10.8588 60.1717 10.8588 57.0453V55.8355C11.2145 55.573 11.5725 55.3111 11.9325 54.99C12.8026 54.2135 13.5623 53.3154 14.1715 52.3484C18.3887 53.6645 21.2477 55.8563 22.3315 56.7883C22.6282 57.0484 23.0442 57.416 23.9057 58.2242C24.4582 57.3523 24.844 55.6549 24.9215 54.6441C24.958 54.1709 24.7485 53.7141 24.3891 53.4047Z" fill="#E6AF78"/>
<path d="M2.41934 71.5863C1.81621 72.3865 1.46484 73.3687 1.46484 74.4086V85.2265H7.72754V77.3377C7.72754 76.3865 7.29512 75.4867 6.55234 74.8926L2.41934 71.5863Z" fill="#C7CFE2"/>
<path d="M28.6922 71.5863C29.2953 72.3865 29.6467 73.3687 29.6467 74.4086V85.2265H23.384V77.3377C23.384 76.3865 23.8164 75.4867 24.5592 74.8926L28.6922 71.5863Z" fill="#C7CFE2"/>
<path d="M71.9191 44.5199V45.6187C71.9191 46.965 72.1361 48.3023 72.5619 49.5795L75.0504 57.0451H79.7473V39.823H76.616C74.0221 39.8228 71.9191 41.9257 71.9191 44.5199Z" fill="#5A4146"/>
<path d="M93.4768 47.3505L90.7069 57.045L78.1817 46.0855C76.4524 46.0855 75.0504 44.6835 75.0504 42.9542C75.0504 40.3601 77.1533 38.2573 79.7473 38.2573H93.8381V44.7698C93.8383 45.6425 93.7166 46.5112 93.4768 47.3505Z" fill="#694B4B"/>
<path d="M87.5762 61.7418H78.1816V71.1363H87.5762V61.7418Z" fill="#E6AF78"/>
<path d="M95.1285 67.698L87.5752 65.54L82.8787 71.1357L78.1819 65.54L70.6289 67.698C68.6125 68.2742 67.2223 70.1172 67.2223 72.2143V85.2266H98.5352V72.2145C98.5352 70.1172 97.1449 68.2742 95.1285 67.698Z" fill="#D5DCED"/>
<path d="M82.8787 63.3076C77.6906 63.3076 73.4847 59.1018 73.4847 53.9137C73.4847 51.9088 74.2812 49.9859 75.6988 48.5682L77.2408 47.0262C77.842 46.425 78.664 46.0793 79.5136 46.1061C84.5185 46.2639 88.9486 47.3361 91.3703 49.7012C91.9631 50.2801 92.2724 51.09 92.2724 51.9186V53.9135C92.2726 59.1018 88.0668 63.3076 82.8787 63.3076Z" fill="#F0C087"/>
<path d="M78.1817 53.9137C78.1817 52.1076 79.6985 50.6721 81.5008 50.7869C84.6616 50.9885 89.3516 51.5168 92.229 52.901C92.135 52.2404 91.8512 50.1711 91.3702 49.7012C88.9487 47.3361 84.5186 46.2639 79.5137 46.1061H79.5135C78.6639 46.0793 77.8418 46.4252 77.2407 47.0262L75.6987 48.5682C74.2809 49.9859 73.4846 51.9086 73.4846 53.9137C73.4846 58.1977 76.3551 61.8047 80.2756 62.9342C78.9708 61.324 78.1815 59.2805 78.1815 57.0449V53.9137H78.1817Z" fill="#E6AF78"/>
<path d="M92.2725 76.8795C92.2725 75.6338 92.7674 74.4391 93.6482 73.5582L97.6785 69.528C98.2172 70.2979 98.5352 71.2248 98.5352 72.2143V85.2266H92.2725V76.8795Z" fill="#C7CFE2"/>
<path d="M72.4935 68.0711L59.3939 63.3076L50 66.4389L40.606 63.3076L27.5064 68.0711C25.0314 68.9711 23.384 71.3232 23.384 73.9566V85.2266H76.616V73.9566C76.616 71.3232 74.9685 68.9711 72.4935 68.0711Z" fill="#FF507D"/>
<path d="M74.9308 69.6898C75.9881 70.8246 76.616 72.3357 76.616 73.9568V85.2269H67.222V79.9927C67.222 78.3318 67.8818 76.7388 69.0562 75.5644L74.9308 69.6898Z" fill="#D23C69"/>
<path d="M67.2221 31.0195V17.9037C67.2221 16.1744 65.8201 14.7725 64.0908 14.7725H45.3029C38.3855 14.7725 32.7777 20.3803 32.7777 27.2977V31.0195C32.7777 32.7023 33.049 34.374 33.5812 35.9705L34.1023 37.534C34.2619 38.0129 34.3433 38.5145 34.3433 39.0193V39.8229H65.6564V39.0193C65.6564 38.5145 65.7379 38.0129 65.8974 37.534L66.4185 35.9705C66.9508 34.3742 67.2221 32.7023 67.2221 31.0195Z" fill="#5A4146"/>
<path d="M40.606 21.133C40.606 24.6457 43.4537 27.4936 46.9666 27.4936H47.8472L48.2724 39.823H65.6566V39.0195C65.6566 38.5146 65.738 38.0133 65.8976 37.5342L66.4187 35.9707C66.9509 34.3742 67.2222 32.7025 67.2222 31.0197V17.9037C67.2222 16.1742 65.8203 14.7725 64.091 14.7725H46.9668C43.4537 14.7725 40.606 17.6201 40.606 21.133Z" fill="#694B4B"/>
<path d="M59.3926 52.3472H40.6055V66.437H59.3926V52.3472Z" fill="#E6AF78"/>
<path d="M40.606 59.4338C43.4181 60.9008 46.6088 61.742 50 61.742C53.3912 61.742 56.5818 60.9008 59.3939 59.4338V52.348H40.606V59.4338Z" fill="#D29B6E"/>
<path d="M50 66.4388L45.0067 71.4322C44.3356 72.1033 43.2262 72.0277 42.6524 71.2717L37.4749 64.4496L38.8291 61.5957C39.2288 60.7535 40.2711 60.4449 41.0649 60.934L50 66.4388Z" fill="#D23C69"/>
<path d="M50 66.4388L54.9934 71.4322C55.6645 72.1033 56.7738 72.0277 57.3477 71.2717L62.5252 64.4496L61.1709 61.5957C60.7713 60.7535 59.7289 60.4449 58.9352 60.934L50 66.4388Z" fill="#D23C69"/>
<path d="M50 57.0452C41.3531 57.0452 34.3436 50.0356 34.3436 41.3887V39.8231L36.949 38.0862C38.2557 37.2151 39.0406 35.7485 39.0406 34.178V28.8635C39.0406 28.8635 51.566 24.1665 60.9598 31.995C60.9598 31.995 60.9598 33.061 60.9598 34.1772C60.9598 35.7477 61.7445 37.2149 63.0514 38.0862L65.6566 39.8231V41.3887C65.6564 50.0354 58.6469 57.0452 50 57.0452Z" fill="#F0C087"/>
<path d="M25.0691 69.6898C24.0119 70.8246 23.384 72.3357 23.384 73.9568V85.2269H32.7779V79.9927C32.7779 78.3318 32.1182 76.7388 30.9437 75.5644L25.0691 69.6898Z" fill="#D23C69"/>
<path d="M46.4914 32.6266C49.8959 32.1996 55.8553 31.9545 60.9596 34.177C60.9596 33.5492 60.9596 31.9947 60.9596 31.9947C51.5656 24.1662 39.0404 28.8633 39.0404 28.8633V34.1777C39.0404 35.7482 38.2557 37.2146 36.9488 38.0859L34.3436 39.8229V41.3885C34.3436 49.3936 40.3551 55.9838 48.108 56.9197H48.1084C45.4067 54.1064 43.7375 50.2939 43.7375 46.0855V35.7367C43.7373 34.15 44.9172 32.824 46.4914 32.6266Z" fill="#E6AF78"/>
<path d="M86.9165 48.9604C87.1268 49.0657 87.3502 49.1153 87.5704 49.1153C88.1077 49.1153 88.6251 48.8184 88.8817 48.3053C89.2436 47.5817 88.9502 46.7018 88.2266 46.3399C84.8239 44.6387 78.444 44.619 78.1741 44.619C77.3651 44.619 76.7092 45.2749 76.7092 46.0839C76.7092 46.8928 77.3651 47.5487 78.1741 47.5487C79.8204 47.5489 84.6002 47.8024 86.9165 48.9604Z" fill="#666666"/>
<path d="M95.5297 67.1954L89.4799 65.4669C89.2188 65.3923 89.0363 65.1505 89.0363 64.8788V62.8595C89.5285 62.5185 89.998 62.1368 90.4369 61.7109C92.5639 59.6468 93.7352 56.8782 93.7352 53.915V51.1284L94.3201 49.9587C94.9621 48.6745 95.3014 47.2368 95.3014 45.8013V38.2525C95.3014 37.4435 94.6455 36.7876 93.8365 36.7876H79.7402C74.6144 36.7876 70.4441 40.9579 70.4441 46.0837V46.171C70.4441 47.3648 70.7264 48.5603 71.2602 49.6279L72.0104 51.1282V53.5208C72.0104 57.3126 73.8789 60.7148 76.7092 62.762L76.7096 64.8784C76.7096 65.2048 76.7096 65.34 75.5 65.6857L72.548 66.529L64.0088 63.4239C64.0395 63.021 63.9035 62.6113 63.6096 62.3025L60.8809 59.4357V54.6232C61.1693 54.3855 61.4537 54.1413 61.7293 53.8831C65.1717 50.6566 67.1459 46.1011 67.1459 41.3849V37.5415C68.1853 35.2796 68.7121 32.8861 68.7121 30.421V14.7589C68.7121 13.9499 68.0563 13.2941 67.2473 13.2941H45.3197C37.6029 13.2941 31.325 19.5722 31.325 27.2888V30.4214C31.325 32.8864 31.8518 35.28 32.8912 37.5419V40.8488C32.8912 46.3245 35.326 51.2577 39.1562 54.5101V59.4359L36.4275 62.3027C36.1336 62.6114 35.9977 63.0212 36.0283 63.4241L27.0156 66.7013C26.3625 66.9388 25.7557 67.2605 25.2047 67.6501L23.7895 66.9425C28.0023 65.1087 29.3369 62.5296 29.401 62.4015C29.6072 61.9892 29.6072 61.5036 29.401 61.0913C28.3449 58.9792 28.217 55.1079 28.1143 51.9974C28.0801 50.9618 28.0477 49.9835 27.9857 49.1124C27.4863 42.0863 22.1449 36.7876 15.5609 36.7876C8.97695 36.7876 3.63535 42.0861 3.13613 49.1124C3.07422 49.9837 3.0418 50.962 3.00762 51.9978C2.90488 55.1081 2.77676 58.979 1.7209 61.0911C1.51465 61.5034 1.51465 61.989 1.7209 62.4013C1.78496 62.5294 3.1168 65.1032 7.33809 66.9392L3.40703 68.9046C1.30547 69.956 0 72.0683 0 74.4179V85.24C0 86.0489 0.655859 86.7048 1.46484 86.7048C2.27383 86.7048 2.92969 86.0489 2.92969 85.24V74.4179C2.92969 73.1851 3.61465 72.0767 4.71719 71.5253L9.6123 69.0779L11.315 70.696C12.5057 71.8275 14.033 72.3929 15.5609 72.3929C17.0885 72.3929 18.6166 71.8271 19.8068 70.696L21.5094 69.078L23.1055 69.8761C22.3539 71.0786 21.9273 72.4888 21.9273 73.9659V85.2404C21.9273 86.0493 22.5832 86.7052 23.3922 86.7052C24.2012 86.7052 24.857 86.0493 24.857 85.2404V73.9659C24.857 71.955 26.1268 70.1421 28.0168 69.4548L37.5191 65.9995L41.4748 71.9333C41.9805 72.6919 42.7908 73.1784 43.698 73.2683C43.7992 73.2782 43.8998 73.2831 44.0002 73.2831C44.8006 73.2831 45.5672 72.9681 46.1402 72.3952L48.5535 69.982V85.2406C48.5535 86.0495 49.2094 86.7054 50.0184 86.7054C50.8273 86.7054 51.4832 86.0495 51.4832 85.2406V69.982L53.8965 72.3952C54.4693 72.9683 55.2359 73.2833 56.0365 73.2833C56.1367 73.2833 56.2375 73.2784 56.3385 73.2685C57.2459 73.1786 58.0563 72.6921 58.5619 71.9335L62.5178 65.9999L72.0199 69.4552C73.9098 70.1425 75.1797 71.9554 75.1797 73.9663V85.2407C75.1797 86.0497 75.8355 86.7056 76.6445 86.7056C77.4535 86.7056 78.1094 86.0497 78.1094 85.2407V73.9663C78.1094 71.9296 77.3002 70.0195 75.9428 68.6068L76.3047 68.5034C76.6697 68.3991 77.1678 68.2564 77.6678 68.0112L81.4078 71.7513V85.2407C81.4078 86.0497 82.0637 86.7056 82.8727 86.7056C83.6816 86.7056 84.3375 86.0497 84.3375 85.2407V71.7513L88.0516 68.0372C88.249 68.1376 88.4565 68.2224 88.6748 68.2847L94.7248 70.0132C96.1057 70.4077 97.0703 71.6865 97.0703 73.1228V85.2407C97.0703 86.0497 97.7262 86.7056 98.5352 86.7056C99.3441 86.7056 100 86.0497 100 85.2407V73.1228C100 70.3847 98.1617 67.9476 95.5297 67.1954ZM21.7244 64.613L21.7246 62.8659C23.4287 61.6927 24.7836 60.0423 25.592 58.0907C25.7676 59.3521 26.0268 60.547 26.426 61.5904C25.8426 62.3011 24.4617 63.6275 21.7244 64.613ZM6.05859 49.3202C6.2457 46.6882 7.29746 44.2628 9.02012 42.4906C10.7582 40.7023 13.0813 39.7175 15.5613 39.7175C18.0414 39.7175 20.3643 40.7023 22.1025 42.4906C23.8252 44.2628 24.877 46.6882 25.0641 49.3202C25.1219 50.1361 25.1535 51.0872 25.1867 52.0943C25.1896 52.1808 25.1926 52.2685 25.1955 52.3556C23.6018 49.9001 21.1404 48.0905 17.9602 47.0687C15.0221 46.1247 12.4951 46.1831 12.3885 46.1859C12.0049 46.1966 11.6408 46.3572 11.3746 46.6333L8.73164 49.3743C8.17012 49.9568 8.18691 50.8841 8.76934 51.4456C9.35176 52.0072 10.2791 51.9902 10.8406 51.4079L13.0398 49.1273C14.9338 49.2198 21.027 49.9284 23.3967 55.1466C22.8004 58.9921 19.4953 61.8478 15.5617 61.8478C11.1875 61.8478 7.6291 58.2892 7.6291 53.9152C7.6291 53.1062 6.97324 52.4503 6.16426 52.4503C6.08223 52.4503 6.00215 52.4587 5.92383 52.4718C5.92812 52.3458 5.93223 52.2197 5.93652 52.0948C5.96914 51.0876 6.00059 50.1363 6.05859 49.3202ZM4.69629 61.59C5.09629 60.5443 5.35566 59.3466 5.53125 58.0823C6.33906 60.0193 7.69199 61.6728 9.39746 62.8525V64.6081C6.65742 63.6222 5.28301 62.3077 4.69629 61.59ZM13.3334 68.5724L11.9711 67.2779C12.201 66.8472 12.3273 66.3589 12.3273 65.8474V64.2861C13.3492 64.6054 14.4355 64.7777 15.5613 64.7777C16.6857 64.7777 17.7715 64.6046 18.7951 64.287L18.7949 65.8472C18.7949 66.3589 18.9211 66.8474 19.1512 67.2782L17.7891 68.5726C16.5396 69.7597 14.5824 69.7595 13.3334 68.5724ZM35.8209 40.8486V37.2142C35.8209 36.9937 35.7711 36.7759 35.6752 36.5773C34.7326 34.6253 34.2547 32.5542 34.2547 30.4214V27.2888C34.2547 21.1874 39.2186 16.2238 45.3197 16.2238H65.7824V30.4214C65.7824 32.5542 65.3045 34.6253 64.3619 36.5773C64.266 36.7759 64.2162 36.9937 64.2162 37.2142V41.3851C64.2162 45.3521 62.6215 49.0316 59.7258 51.7458C59.3643 52.0845 58.9891 52.4021 58.6012 52.698C58.5926 52.7038 58.5844 52.7103 58.576 52.7163C55.8633 54.7759 52.5406 55.7769 49.0707 55.5521C41.6408 55.071 35.8209 48.6124 35.8209 40.8486ZM48.8811 58.4755C49.2672 58.5005 49.651 58.5128 50.0336 58.5128C52.8346 58.5128 55.5303 57.8433 57.9512 56.5724V59.2482L50.0186 64.6704L42.0859 59.2482V56.5138C44.1385 57.6234 46.4367 58.3173 48.8811 58.4755ZM44.0688 70.3234C44.0586 70.3335 44.035 70.3575 43.9871 70.3525C43.9395 70.3478 43.9207 70.3199 43.9127 70.3077L39.357 63.4741L40.823 61.9337L47.7342 66.6577L44.0688 70.3234ZM56.1244 70.3079C56.1164 70.32 56.0977 70.348 56.05 70.3527C56.0022 70.3587 55.9787 70.3335 55.9684 70.3236L52.3029 66.6581L59.2141 61.9339L60.6803 63.4743L56.1244 70.3079ZM74.94 53.5212V50.7827C74.94 50.5552 74.8871 50.331 74.7854 50.1277L73.8805 48.3179C73.549 47.6548 73.3738 46.9126 73.3738 46.1712V46.0839C73.3738 42.5734 76.2299 39.7175 79.7402 39.7175H92.3717V45.8015C92.3717 46.7847 92.1393 47.7693 91.6996 48.6488L90.9602 50.1277C90.8584 50.3312 90.8055 50.5552 90.8055 50.7827V53.9152C90.8055 56.0792 89.95 58.1011 88.3967 59.6085C86.8441 61.1152 84.7932 61.9109 82.6277 61.8441C78.3887 61.7169 74.94 57.9831 74.94 53.5212ZM82.5396 64.7724C82.6525 64.7759 82.7645 64.7775 82.877 64.7775C83.9887 64.7775 85.0738 64.6095 86.1066 64.289V64.8788C86.1066 65.171 86.1434 65.4573 86.2125 65.7325L82.8727 69.0722L79.5484 65.7482C79.6064 65.4847 79.6393 65.1962 79.6391 64.878L79.6389 64.2599C80.5613 64.5626 81.5336 64.7423 82.5396 64.7724Z" fill="#666666"/>
<path d="M92.2701 74.3778C91.4612 74.3778 90.8053 75.0337 90.8053 75.8427V85.2401C90.8053 86.0491 91.4612 86.7049 92.2701 86.7049C93.0791 86.7049 93.735 86.0491 93.735 85.2401V75.8427C93.735 75.0337 93.0791 74.3778 92.2701 74.3778Z" fill="#666666"/>
<path d="M7.72986 76.3141C6.92087 76.3141 6.26501 76.9699 6.26501 77.7789V85.2401C6.26501 86.049 6.92087 86.7049 7.72986 86.7049C8.53884 86.7049 9.1947 86.049 9.1947 85.2401V77.7789C9.1947 76.9699 8.53884 76.3141 7.72986 76.3141Z" fill="#666666"/>
<path d="M40.5195 30.1793C40.5195 30.1295 40.5523 30.0869 40.5961 30.0803C42.4842 29.7957 46.2309 29.3566 50.1127 29.6154C54.6807 29.9195 57.9893 31.0662 59.9465 33.0236C60.5186 33.5957 61.4461 33.5957 62.018 33.0236C62.5901 32.4515 62.5901 31.524 62.018 30.9521C56.4777 25.4119 44.8861 26.4711 40.1592 27.1836C38.6703 27.408 37.5898 28.668 37.5898 30.1795V33.5541C37.5898 34.3631 38.2457 35.0189 39.0547 35.0189C39.8637 35.0189 40.5195 34.3631 40.5195 33.5541V30.1793Z" fill="#666666"/>
<path d="M32.7898 77.5104C31.9808 77.5104 31.325 78.1662 31.325 78.9752V85.2403C31.325 86.0492 31.9808 86.7051 32.7898 86.7051C33.5988 86.7051 34.2546 86.0492 34.2546 85.2403V78.9752C34.2546 78.1662 33.5988 77.5104 32.7898 77.5104Z" fill="#666666"/>
<path d="M67.2473 77.5104C66.4383 77.5104 65.7824 78.1662 65.7824 78.9752V85.2403C65.7824 86.0492 66.4383 86.7051 67.2473 86.7051C68.0562 86.7051 68.7121 86.0492 68.7121 85.2403V78.9752C68.7121 78.1662 68.0562 77.5104 67.2473 77.5104Z" fill="#666666"/>
</svg>
