<svg width="100" height="100" viewBox="0 0 100 100" fill="none" xmlns="http://www.w3.org/2000/svg">
<path d="M1.95334 2.00175C1.95334 2.00175 12.467 2.3787 24.8283 6.74784L6.69942 24.8767C2.33029 12.5154 1.95334 2.00175 1.95334 2.00175Z" fill="#FF5249"/>
<path d="M6.69939 24.8767L24.8283 6.7478C32.8712 9.58764 41.6954 14.1208 48.9102 21.3357C55.5589 27.9843 60.8809 35.9827 64.5704 44.3454L44.297 64.6188C38.7013 62.15 32.7306 58.7047 27.0763 54.152C25.0978 52.5583 23.1583 50.8297 21.2872 48.9586C14.0724 41.7438 9.53922 32.9196 6.69939 24.8767Z" fill="white"/>
<path d="M24.0509 24.0994C27.1017 21.0486 32.0489 21.0486 35.0997 24.0994C38.1505 27.1502 38.1505 32.0955 35.0997 35.1482C32.047 38.199 27.1017 38.199 24.0509 35.1482C21.0001 32.0974 21.0001 27.1502 24.0509 24.0994Z" fill="#7BD8E8"/>
<path d="M54.4337 26.8611C69.5333 16.7947 79.293 35.6384 79.293 46.1951C73.7696 40.6716 66.6309 42.2849 66.6309 42.2849L64.5704 44.3455C62.1016 38.7498 58.6563 32.7791 54.1036 27.1248L54.4337 26.8611Z" fill="#FF5249"/>
<path d="M58.6016 66.8883L58.2852 67.2047C57.3497 68.1383 55.9942 68.5973 54.713 68.2691C51.5411 67.4547 48.002 66.2516 44.297 64.6188L64.5704 44.3454C66.2032 48.0504 67.4063 51.5895 68.2207 54.7614C68.5489 56.0426 68.0899 57.3981 67.1563 58.3336L66.8399 58.65L58.6016 66.8883Z" fill="#FF5249"/>
<path d="M26.8126 54.4821L27.0763 54.152C32.7306 58.7048 38.7013 62.1501 44.2969 64.6188L42.2364 66.6793C42.2364 66.6793 40.6231 73.818 46.1466 79.3414C35.5899 79.3414 16.7462 69.5817 26.8126 54.4821Z" fill="#FF5249"/>
<path d="M58.6016 66.8883L66.8399 58.6501C69.1817 59.2419 71.6465 60.6462 73.7696 62.7692C78.3457 67.3454 79.293 79.3414 79.293 79.3414C79.293 79.3414 67.2969 78.3942 62.7208 73.818C60.5977 71.695 59.1934 69.2301 58.6016 66.8883Z" fill="#FFDD78"/>
<path d="M50.2912 47.527C49.5275 46.7653 48.2912 46.7653 47.5294 47.527C46.7658 48.2907 46.7658 49.527 47.5294 50.2907C48.2912 51.0524 49.5275 51.0524 50.2912 50.2907C51.0529 49.527 51.0529 48.2907 50.2912 47.527Z" fill="#666666"/>
<path d="M36.4808 22.6695C32.6648 18.8535 26.4865 18.8527 22.6699 22.6695C18.8537 26.4859 18.8535 32.664 22.6699 36.4806C26.4763 40.2871 32.6716 40.2873 36.4812 36.48C40.2866 32.6722 40.2882 26.4769 36.4808 22.6695ZM25.432 33.7183C23.1423 31.4287 23.1419 27.7217 25.432 25.4316C27.7214 23.142 31.4286 23.1416 33.7185 25.4316C36.0025 27.7154 36.0025 31.433 33.7189 33.7179C31.4333 36.0021 27.7157 36.0023 25.432 33.7183Z" fill="#666666"/>
<path d="M47.9509 80.0403C48.0511 79.7987 48.0997 79.5448 48.0997 79.2933C48.0997 78.7849 47.9011 78.2855 47.5277 77.9118C43.6052 73.9894 43.8505 69.1513 44.0583 67.5708L44.7423 66.8868C47.9454 68.2329 51.1306 69.3173 54.2284 70.1126C55.3495 70.3997 56.5358 70.3029 57.621 69.8761C58.4876 71.7566 59.7601 73.5708 61.3397 75.1505C66.3675 80.178 78.6202 81.1989 79.1393 81.2399C79.709 81.2849 80.27 81.0782 80.6741 80.6741C81.0417 80.3063 81.2461 79.8089 81.2461 79.2933C81.2461 79.2421 81.2442 79.1907 81.2401 79.1394C81.1993 78.6202 80.1784 66.3671 75.1509 61.3396C73.5718 59.7605 71.7577 58.4882 69.8776 57.6216C70.3294 56.4728 70.385 55.2904 70.1126 54.2271C69.3175 51.1306 68.2335 47.9459 66.8872 44.7424L67.5712 44.0584C69.1518 43.8508 73.9899 43.6054 77.912 47.5277C78.4706 48.0861 79.3106 48.2533 80.0403 47.9509C80.7702 47.6488 81.246 46.9367 81.246 46.1467C81.246 38.4162 76.6423 27.6086 69.2046 23.6281C65.9747 21.8994 60.8649 20.7225 54.4882 24.476C53.1433 22.8848 51.737 21.3522 50.2913 19.9065C43.8421 13.4573 35.4939 8.39439 25.4791 4.85806C12.9795 0.440102 2.46466 0.0176392 2.02326 0.00182343C1.48127 -0.0177078 0.955681 0.189125 0.572088 0.572525C0.188691 0.956116 -0.0191214 1.47955 0.00138633 2.02369C0.0172066 2.46529 0.439862 12.9799 4.85763 25.4789C8.39395 35.4945 13.457 43.8427 19.9062 50.2918C21.3513 51.7369 22.8838 53.1431 24.4758 54.4886C20.7222 60.8652 21.8992 65.9749 23.6279 69.2052C27.6084 76.6429 38.4162 81.2466 46.1466 81.2466C46.9365 81.246 47.6488 80.77 47.9509 80.0403ZM72.3885 64.1017C75.0741 66.7872 76.4905 73.087 77.0688 77.0689C73.0868 76.4903 66.7872 75.0737 64.1018 72.3884C62.5979 70.8845 61.4577 69.1407 60.8155 67.388L67.3882 60.8154C69.1409 61.4576 70.8847 62.5976 72.3885 64.1017ZM66.3286 55.1974C66.4733 55.7626 66.2608 56.4173 65.7749 56.9041C56.2944 66.3847 68.4645 54.2146 56.9054 65.7736C56.4173 66.2607 55.7628 66.4732 55.1985 66.3288C52.7622 65.7033 50.2626 64.8851 47.739 63.8902L63.8903 47.7388C64.8854 50.2629 65.7034 52.7621 66.3286 55.1974ZM67.3614 27.0717C72.1425 29.6307 75.6667 36.0736 76.8798 41.9451C73.3569 40.073 68.8724 39.6603 66.153 40.3443C65.5214 40.5031 65.2038 40.9152 65.1665 40.9383C62.8741 36.2053 60.1239 31.723 56.9605 27.5621C60.6741 25.5295 64.1669 25.3621 67.3614 27.0717ZM21.2084 7.55669L7.55684 21.2082C5.24669 13.7705 4.38165 7.30005 4.07071 4.07037C7.30098 4.3815 13.7715 5.24673 21.2084 7.55669ZM22.6683 47.5289C16.882 41.7428 12.2769 34.2752 8.96211 25.3276L25.3277 8.96196C34.2751 12.2764 41.7427 16.8815 47.5292 22.6682C49.289 24.4281 50.9892 26.3233 52.5823 28.301C56.4105 33.0553 59.653 38.2881 62.2343 43.8709L43.8714 62.2341C38.2882 59.6529 33.0554 56.4103 28.3017 52.5826C26.3226 50.988 24.4273 49.288 22.6683 47.5289ZM27.0718 67.3613C25.3621 64.1661 25.5297 60.6738 27.5623 56.9605C31.7228 60.124 36.2052 62.8742 40.9386 65.1665C40.9206 65.1956 40.4786 65.5472 40.3314 66.2003C40.2706 66.4689 39.1591 71.6366 41.9456 76.8798C36.074 75.6665 29.6308 72.1425 27.0718 67.3613Z" fill="#666666"/>
<path d="M88.961 58.5757L83.4356 53.0523C82.6727 52.2898 81.436 52.29 80.6735 53.0527C79.9108 53.8158 79.9112 55.0525 80.6739 55.815L86.1993 61.3384C86.9622 62.1009 88.1989 62.1007 88.9614 61.338C89.7239 60.5749 89.7239 59.3382 88.961 58.5757Z" fill="#666666"/>
<path d="M61.3383 86.199L55.8149 80.6736C55.0524 79.9107 53.8157 79.9105 53.0528 80.673C52.2899 81.4355 52.2899 82.6721 53.0524 83.4351L58.5758 88.9605C59.3383 89.7234 60.575 89.7236 61.3379 88.9611C62.1004 88.1988 62.1012 86.9623 61.3383 86.199Z" fill="#666666"/>
<path d="M83.4372 69.6249L96.6657 82.8553C97.4284 83.6182 98.6651 83.6182 99.4278 82.8555C100.19 82.0932 100.191 80.8563 99.428 80.0934L86.1995 66.863C85.4368 66.1001 84.2001 66.1001 83.4374 66.8628C82.6747 67.6251 82.6747 68.862 83.4372 69.6249Z" fill="#666666"/>
<path d="M83.4372 85.2499L96.6657 98.4803C97.4284 99.2432 98.6651 99.2432 99.4278 98.4805C100.19 97.7182 100.191 96.4813 99.428 95.7184L86.1995 82.4879C85.4368 81.7251 84.2001 81.7251 83.4374 82.4877C82.6747 83.2502 82.6747 84.4872 83.4372 85.2499Z" fill="#666666"/>
<path d="M82.8555 96.6655L69.625 83.437C68.8621 82.6743 67.6256 82.6743 66.8627 83.4372C66.1002 84.1997 66.1002 85.4366 66.8629 86.1993L80.0934 99.4278C80.8563 100.19 82.0928 100.19 82.8557 99.4276C83.6184 98.6649 83.6184 97.4282 82.8555 96.6655Z" fill="#666666"/>
<path d="M44.7659 42.0035L42.0042 39.2417C41.2415 38.4791 40.0048 38.4791 39.2419 39.2417C38.4792 40.0046 38.4792 41.241 39.2419 42.004L42.0036 44.7657C42.7663 45.5284 44.003 45.5284 44.7659 44.7657C45.5286 44.0029 45.5286 42.7663 44.7659 42.0035Z" fill="#666666"/>
</svg>
