<svg xmlns="http://www.w3.org/2000/svg" viewBox="0 0 40 40"><defs><style>.cls-1{fill:#010048;fill-opacity:0.01;}.cls-2{fill:#ffae71;}.cls-3{fill:#d36845;}.cls-4{fill:#e57c4f;}.cls-5{fill:#ff5249;}.cls-6{fill:#fff;}.cls-7{fill:#7bd8e8;}.cls-8{fill:#ffdd78;}.cls-9{fill:#ffa64d;}</style></defs><title>logo</title><g id="Слой_2" data-name="Слой 2"><g id="Слой_1-2" data-name="Слой 1"><circle class="cls-1" cx="20" cy="20" r="20"/><path class="cls-2" d="M35.93,6.24a15.57,15.57,0,0,0-1.64-1.71c-.2-.19-.41-.37-.63-.55L33,3.46l-.52-.38L32.37,3s0,0-.07,0a7.49,7.49,0,0,0-.73-.45c-.27-.14-.48-.29-.72-.41L30.55,2A17.48,17.48,0,0,0,12,3.5a18.82,18.82,0,0,0-1.87,1.58c-.2.2-.39.4-.58.62Q9,6.35,8.5,7.05c-.08.1-.16.22-.24.34l-.15.21L8,7.74l-.39.6-.06.12a5.61,5.61,0,0,0-.3.51c-.08.16-.27.5-.39.73a6.39,6.39,0,0,0-.31.66c-.1.23-.3.69-.46,1.12A17.52,17.52,0,0,0,6.58,24.6c.2.44.42.88.66,1.3.11.21.24.42.38.65a.41.41,0,0,0,.07.11l.08.12c.14.23.29.46.45.68s.26.37.39.54.3.4.46.58c.36.46.72.86,1.09,1.27A12.45,12.45,0,0,0,11.4,31a15.67,15.67,0,0,0,1.34,1c.44.29.89.57,1.36.82.17.1.36.2.53.28l.47.23.35.16.48.2.4.16.54.19.23.08a6.09,6.09,0,0,0,.73.21,13.89,13.89,0,0,0,1.67.38,3,3,0,0,0,.51.08,16.55,16.55,0,0,0,2.53.17,17.29,17.29,0,0,0,3.59-.37,16.16,16.16,0,0,0,2.65-.79,14,14,0,0,0,1.38-.59c.25-.12.5-.25.73-.39A16.35,16.35,0,0,0,33,31.47a14.9,14.9,0,0,0,1.81-1.56A17.48,17.48,0,0,0,35.93,6.24Z"/><path class="cls-3" d="M36.8,22a.37.37,0,0,1-.25-.19.36.36,0,0,1,0-.3.37.37,0,0,1,.19-.25.36.36,0,0,1,.3-.05l.15.06a.4.4,0,0,1,.1.12.24.24,0,0,1,0,.14.43.43,0,0,1,0,.16,0,0,0,0,1,0,0,.41.41,0,0,1-.18.25A.45.45,0,0,1,36.8,22Z"/><path class="cls-4" d="M9.27,25.42c1.13.88,2,2,3.07,3,2.37,2.1,5.68,3.21,7.41,5.83a2.6,2.6,0,0,1,.25.5,2.17,2.17,0,0,1-.5-.08,12.48,12.48,0,0,1-1.69-.38q-.36-.09-.72-.21L16.9,34l-.58-.21-.4-.16-.48-.2-.36-.16L14.6,33l-.52-.28c-.46-.26-.92-.53-1.36-.82s-.9-.63-1.32-1-.85-.73-1.24-1.1A13.55,13.55,0,0,1,9,28.6L8.56,28c-.15-.2-.26-.34-.37-.52s-.32-.46-.46-.68l-.08-.13-.08-.13a5.59,5.59,0,0,1-.32-.65,9.16,9.16,0,0,1-.43-.82c-.08-.16-.16-.32-.23-.49l-.2-.49A9.3,9.3,0,0,1,9.27,25.42Z"/><path class="cls-4" d="M36.38,13.59c.56.64-1.14,1.17-1.83.79a.58.58,0,0,1-.23-.18.57.57,0,0,1-.11-.28,1.12,1.12,0,0,1,1.14-.82A1.55,1.55,0,0,1,36.38,13.59Z"/><path class="cls-4" d="M34.29,4.49A15.57,15.57,0,0,1,35.93,6.2c0,.06-.06.12-.08.18a1.69,1.69,0,0,1-.33.53,2.08,2.08,0,0,1-2,.18,2.5,2.5,0,0,1-1-.43,7.11,7.11,0,0,1-.69-.85,8.21,8.21,0,0,0-1.29-1,1.69,1.69,0,0,1,.07-2.84l.29.15.73.42c.24.14.46.29.7.45h.05c.23.15.44.3.64.45l.66.52C33.86,4.09,34.09,4.3,34.29,4.49Z"/><path class="cls-4" d="M32.74,26.85c-.22.63.52,1.1,1,1.51a2.65,2.65,0,0,1,1,1.55A17.92,17.92,0,0,1,33,31.47l-.64.44c-.48.32-1,.62-1.45.9l-.73.39c-.45.21-.92.42-1.38.59a17.32,17.32,0,0,1-2.66.79,8.89,8.89,0,0,0-3.41-3.65c-1.12-.72-2.52-1.45-2.6-2.8a8.57,8.57,0,0,1,.72-2.48,3.36,3.36,0,0,0-.51-2.82c-.85-1.22-2.36-1.73-3.72-2.3a26.06,26.06,0,0,1-6.9-4.19,2.36,2.36,0,0,1,1-.84,2.56,2.56,0,0,1,1.31-.17,9.87,9.87,0,0,1,2.56.73A15.62,15.62,0,0,0,19,17c1.32.08,2.92-.17,3.39-1.38a2.58,2.58,0,0,1,.23-.54.91.91,0,0,1,.47-.3.92.92,0,0,1,.57,0,1.52,1.52,0,0,1,.47.2,16.76,16.76,0,0,0,1.34,1c.45.22,1,.26,1.34.64a1.11,1.11,0,0,1,.17.83,1.08,1.08,0,0,1-.46.71h0c-.27.18-.67.37-.61.73a.68.68,0,0,0,.12.22.8.8,0,0,0,.21.15c1.4.86,3.14,1.33,4.09,2.69A17.8,17.8,0,0,0,31.56,24c.33.36.77.61,1.11,1a1.18,1.18,0,0,1,.38.62,1.21,1.21,0,0,1,0,.73A3.39,3.39,0,0,0,32.74,26.85Z"/><path class="cls-4" d="M32.79,18.28c1.54,1.26-.3,2.47-1.72,1.75a2.28,2.28,0,0,1-1-.91c-.4-.68-.22-1.75.73-1.78A3.93,3.93,0,0,1,32.79,18.28Z"/><path class="cls-4" d="M18.67,7.62c1,1.19-1.26,2.4-2.39,1.74A1.48,1.48,0,0,1,15.85,9a1.45,1.45,0,0,1-.24-.5A1.59,1.59,0,0,1,16,7.35,1.64,1.64,0,0,1,17,6.75a2.63,2.63,0,0,1,.92.26A2.46,2.46,0,0,1,18.67,7.62Z"/><path class="cls-4" d="M6.07,11.46c.14-.37.29-.72.46-1.12.09-.22.2-.44.31-.66s.25-.49.39-.73.2-.35.3-.52a.57.57,0,0,1,.08-.13c.12-.21.25-.4.38-.59l.11-.18c.12-.16.24-.35.37-.51A15.46,15.46,0,0,1,9.58,5.68c.19-.22.37-.42.57-.61A15.61,15.61,0,0,1,12,3.47c.23-.18.47-.34.73-.51l.34-.21a4.87,4.87,0,0,1,.33,1.61,2.85,2.85,0,0,1-.26.83,4.6,4.6,0,0,1-1.26,1.9,7.77,7.77,0,0,0-1.24.81,3,3,0,0,0-.56.92,4.48,4.48,0,0,1-2.7,2.67A3,3,0,0,1,6.07,11.46Z"/><path class="cls-3" d="M31.16,9.8a.36.36,0,0,1-.25-.18.42.42,0,0,1-.05-.31.37.37,0,0,1,.07-.14L31,9.06,31.19,9a.3.3,0,0,1,.16,0h0l.15.05a.43.43,0,0,1,.12.11,1,1,0,0,1,.07.15.43.43,0,0,1,0,.16.39.39,0,0,1-.06.15.25.25,0,0,1-.11.12.34.34,0,0,1-.15.06h-.22Z"/><path class="cls-3" d="M17.12,13.62a.41.41,0,0,1-.19.25.42.42,0,0,1-.31.05.39.39,0,0,1-.25-.2.42.42,0,0,1-.05-.31.4.4,0,0,1,.2-.24.42.42,0,0,1,.31,0,.41.41,0,0,1,.24.19A.45.45,0,0,1,17.12,13.62Z"/><path class="cls-3" d="M16.84,24.75a.41.41,0,0,1-.19.24.47.47,0,0,1-.31.05.5.5,0,0,1-.19-.13.4.4,0,0,1-.09-.21.37.37,0,0,1,0-.23.41.41,0,0,1,.15-.17.42.42,0,0,1,.45,0,.41.41,0,0,1,.13.19A.36.36,0,0,1,16.84,24.75Z"/><path class="cls-3" d="M7.06,20.55a.41.41,0,1,0-.41-.41A.4.4,0,0,0,7.06,20.55Z"/><path class="cls-3" d="M33.77,28.77a.39.39,0,0,1-.26-.09l-.18-.14c-.54-.42-1.28-1-1-1.82a1.22,1.22,0,0,1,.23-.42l.1-.18a.91.91,0,0,0,0-.49.87.87,0,0,0-.27-.41c-.16-.15-.32-.29-.5-.43A4.11,4.11,0,0,1,30.41,23a5.53,5.53,0,0,0-.46-.82,6.45,6.45,0,0,0-2.57-1.83A15.69,15.69,0,0,1,26,19.6a1,1,0,0,1-.33-.28,1,1,0,0,1-.18-.4c-.1-.57.39-.87.68-1.05l.11-.07a.66.66,0,0,0,.21-.23.65.65,0,0,0,.11-.29.89.89,0,0,0,0-.23.75.75,0,0,0-.1-.2,1.33,1.33,0,0,0-.67-.33l-.54-.2a5,5,0,0,1-.85-.6,5.56,5.56,0,0,0-.54-.42.93.93,0,0,0-.36-.14.43.43,0,0,1-.25-.19.4.4,0,0,1-.05-.3h0a.37.37,0,0,1,.07-.14.38.38,0,0,1,.11-.11l.15-.05h.16a2.24,2.24,0,0,1,.6.25,4.77,4.77,0,0,1,.63.48,3.75,3.75,0,0,0,.69.49,3.16,3.16,0,0,0,.43.16,2.09,2.09,0,0,1,1,.59,1.41,1.41,0,0,1,.26.5,1.37,1.37,0,0,1,0,.57,1.54,1.54,0,0,1-.22.62,1.71,1.71,0,0,1-.46.47l-.12.08a2.11,2.11,0,0,0-.31.21l.14.08a13.33,13.33,0,0,0,1.34.73,7.16,7.16,0,0,1,2.87,2.09,6.05,6.05,0,0,1,.53.93,4.81,4.81,0,0,0,.68,1.08,4.6,4.6,0,0,0,.53.46,4.69,4.69,0,0,1,.59.51,1.66,1.66,0,0,1,.43,1.8,2.75,2.75,0,0,1-.17.29.74.74,0,0,0-.13.21c-.09.27.27.57.73.93L34,28a.29.29,0,0,1,.1.12.3.3,0,0,1,0,.15.43.43,0,0,1,0,.16.39.39,0,0,1-.08.14.26.26,0,0,1-.14.11.33.33,0,0,1-.17,0Z"/><path class="cls-3" d="M20.82,17.23a.38.38,0,0,1-.29-.12.38.38,0,0,1-.12-.28.44.44,0,0,1,.08-.25.48.48,0,0,1,.22-.15,1.65,1.65,0,0,0,.75-.34,1.79,1.79,0,0,0,.52-.64l.05-.17a2.09,2.09,0,0,1,.22-.48,1.37,1.37,0,0,1,.66-.45,1.29,1.29,0,0,1,.8,0,.41.41,0,0,1,.25.18.37.37,0,0,1,.05.31.41.41,0,0,1-.18.25.37.37,0,0,1-.31.05c-.14,0-.47-.09-.61.12a1.34,1.34,0,0,0-.13.27l-.06.18a2.49,2.49,0,0,1-.73.94,2.58,2.58,0,0,1-1.08.52Z"/><path class="cls-3" d="M20.54,26.94a.45.45,0,0,1-.16,0l-.13-.09a.42.42,0,0,1-.09-.14.37.37,0,0,1,0-.15.43.43,0,0,1,0-.16,5.82,5.82,0,0,0,.3-.79,3,3,0,0,0,.07-1.3,3.08,3.08,0,0,0-.5-1.21,6.59,6.59,0,0,0-3.12-2l-.41-.17a26.4,26.4,0,0,1-7-4.27.36.36,0,0,1-.13-.24.42.42,0,0,1,0-.27,2.8,2.8,0,0,1,2.71-1.2,7.89,7.89,0,0,1,2.19.59l.47.17a15.65,15.65,0,0,0,4.22.89.42.42,0,0,1,.28.14.41.41,0,0,1,.11.29.43.43,0,0,1-.15.28.43.43,0,0,1-.29.1,16,16,0,0,1-4.37-.95l-.47-.17a7.62,7.62,0,0,0-2-.54,2.22,2.22,0,0,0-1.73.53,25.66,25.66,0,0,0,6.5,3.89l.42.17a7.17,7.17,0,0,1,3.48,2.26,4,4,0,0,1,.63,1.54,3.87,3.87,0,0,1-.09,1.66,6.76,6.76,0,0,1-.33.89.45.45,0,0,1-.16.2A.54.54,0,0,1,20.54,26.94Z"/><path class="cls-3" d="M19.35,34.11a.39.39,0,0,1-.18,0A.49.49,0,0,1,19,34a14.67,14.67,0,0,0-3.91-3.1,22.46,22.46,0,0,1-3-2.18l-.33-.29a.39.39,0,0,1-.11-.28.39.39,0,0,1,.11-.27.43.43,0,0,1,.27-.13.48.48,0,0,1,.29.09l.3.28a23.07,23.07,0,0,0,2.92,2.08,15.52,15.52,0,0,1,4.11,3.28.4.4,0,0,1,.09.3.49.49,0,0,1-.15.27.43.43,0,0,1-.26.09Z"/><path class="cls-3" d="M23.63,15.19a.43.43,0,0,1-.24-.08.54.54,0,0,1-.16-.21l-.06-.24a2.5,2.5,0,0,1-.06-2,2.53,2.53,0,0,1,1.13-1,3.12,3.12,0,0,0,.62-.4A2.4,2.4,0,0,0,25.5,9.7c0-.21,0-.41.05-.62a7.73,7.73,0,0,1,.21-1.51,2.34,2.34,0,0,1,.61-1.08,2.29,2.29,0,0,1,1.08-.61.39.39,0,0,1,.3.07.41.41,0,0,1,.17.26.35.35,0,0,1-.07.3.39.39,0,0,1-.26.17,1.49,1.49,0,0,0-.67.43,1.46,1.46,0,0,0-.38.7,5.31,5.31,0,0,0-.17,1.32,2.81,2.81,0,0,1-.05.65,3.17,3.17,0,0,1-.92,2.14,3.68,3.68,0,0,1-.77.51,1.71,1.71,0,0,0-.79.64A1.86,1.86,0,0,0,24,14.42l.06.19a.42.42,0,0,1,0,.31.4.4,0,0,1-.21.23A.47.47,0,0,1,23.63,15.19Z"/><path class="cls-3" d="M8.47,11.37a.41.41,0,0,1-.41-.4.37.37,0,0,1,0-.18.44.44,0,0,1,.12-.15,5.26,5.26,0,0,0,1.49-2l0-.08a3.28,3.28,0,0,1,.61-1A2.75,2.75,0,0,1,11.18,7a4.08,4.08,0,0,0,.44-.28A4.31,4.31,0,0,0,12.74,5,2.54,2.54,0,0,0,13,4.4a.41.41,0,0,1,.17-.26.47.47,0,0,1,.31,0,.39.39,0,0,1,.25.17.42.42,0,0,1,.07.31,4.93,4.93,0,0,1-.27.73,5,5,0,0,1-1.37,2.12,5.15,5.15,0,0,1-.56.33,2.61,2.61,0,0,0-.62.42,2.62,2.62,0,0,0-.45.73l0,.1A6.24,6.24,0,0,1,8.7,11.29.4.4,0,0,1,8.47,11.37Z"/><path class="cls-5" d="M.33,22a14.52,14.52,0,0,1,3.92.81l-3.1,3.1A14.69,14.69,0,0,1,.33,22Z"/><path class="cls-6" d="M1.15,25.9l3.1-3.1a10.88,10.88,0,0,1,4.12,2.5,12.8,12.8,0,0,1,2.68,3.94L7.58,32.71a13.32,13.32,0,0,1-2.95-1.8c-.34-.28-.67-.57-1-.89A10.85,10.85,0,0,1,1.15,25.9Z"/><path class="cls-7" d="M4.12,25.77a1.31,1.31,0,0,1,1.45-.29,1.26,1.26,0,0,1,.6.49,1.32,1.32,0,0,1,0,1.49,1.26,1.26,0,0,1-.6.49A1.35,1.35,0,0,1,4.8,28a1.27,1.27,0,0,1-.68-.37,1.13,1.13,0,0,1-.29-.43,1.3,1.3,0,0,1-.11-.51,1.35,1.35,0,0,1,.11-.52A1.13,1.13,0,0,1,4.12,25.77Z"/><path class="cls-5" d="M9.32,26.24c2.58-1.72,4.25,1.51,4.25,3.31a2.51,2.51,0,0,0-2.17-.67l-.35.36a13.43,13.43,0,0,0-1.79-2.95Z"/><path class="cls-5" d="M10,33.09l0,.06a.66.66,0,0,1-.29.17.61.61,0,0,1-.33,0,12.5,12.5,0,0,1-1.78-.62l3.47-3.47A11.06,11.06,0,0,1,11.68,31a.74.74,0,0,1,0,.33.64.64,0,0,1-.18.28l-.05.05Z"/><path class="cls-5" d="M4.59,31l0-.06a13.26,13.26,0,0,0,2.94,1.8l-.35.35a2.48,2.48,0,0,0,.67,2.17C6.09,35.23,2.87,33.56,4.59,31Z"/><path class="cls-8" d="M10,33.09l1.41-1.41a2.82,2.82,0,0,1,1.19.71,12.33,12.33,0,0,0,2.46,2.11,46.38,46.38,0,0,0,6.33,3.08s-5.76-1-6.82-1.39a14.8,14.8,0,0,1-3.86-1.91C10,33.61,10.13,33.5,10,33.09Z"/><path d="M8.61,29.78a.32.32,0,0,0-.17-.09.35.35,0,0,0-.35.14A.41.41,0,0,0,8,30a.33.33,0,0,0,.2.31.46.46,0,0,0,.2,0,.42.42,0,0,0,.17-.1.36.36,0,0,0,.07-.1.35.35,0,0,0,0-.13.28.28,0,0,0,0-.13A.41.41,0,0,0,8.61,29.78Z"/><path d="M6.24,25.53a1.59,1.59,0,0,0-.85-.46,1.69,1.69,0,0,0-1,.09,1.73,1.73,0,0,0-.75.62,1.69,1.69,0,0,0-.28.93,1.65,1.65,0,0,0,1,1.54,1.69,1.69,0,0,0,1,.1,1.73,1.73,0,0,0,.85-.46,1.79,1.79,0,0,0,.37-.54,1.77,1.77,0,0,0,.12-.64,1.73,1.73,0,0,0-.12-.64,1.68,1.68,0,0,0-.37-.54ZM4.35,27.42a1,1,0,0,1-.27-.52,1,1,0,0,1,.06-.58,1,1,0,0,1,.37-.45,1,1,0,0,1,.55-.17,1,1,0,0,1,.56.17,1.08,1.08,0,0,1,.37.45,1.06,1.06,0,0,1,.06.58,1,1,0,0,1-.28.52,1,1,0,0,1-.71.29A1.05,1.05,0,0,1,4.35,27.42Z"/><path d="M8.21,35.35a.46.46,0,0,0,0-.2A.56.56,0,0,0,8.14,35a2.13,2.13,0,0,1-.6-1.77l.12-.12a11.61,11.61,0,0,0,1.63.56,1,1,0,0,0,.58,0c.15.33,2.43-1.94,2.09-2.1a.89.89,0,0,0,0-.58,11,11,0,0,0-.55-1.62l.12-.12a2.11,2.11,0,0,1,1.77.59.26.26,0,0,0,.17.09.34.34,0,0,0,.34-.14.3.3,0,0,0,.06-.18,4.74,4.74,0,0,0-2.06-3.86,2.45,2.45,0,0,0-2.52.15c-.23-.28-.47-.54-.72-.79a11.18,11.18,0,0,0-4.25-2.57,14.55,14.55,0,0,0-4-.83.34.34,0,0,0-.24.09A.3.3,0,0,0,0,22v0a15,15,0,0,0,.83,4,11.16,11.16,0,0,0,2.58,4.24c.24.25.51.49.78.72A2.47,2.47,0,0,0,4,33.49,4.74,4.74,0,0,0,7.9,35.56a.6.6,0,0,0,.19-.06A.44.44,0,0,0,8.21,35.35Zm3.14-4.26a.36.36,0,0,1-.09.3L9.74,32.91a.57.57,0,0,1-.13.08.3.3,0,0,1-.16,0,9.58,9.58,0,0,1-1.28-.42l2.77-2.76A11.06,11.06,0,0,1,11.35,31.09Zm.18-4.81a3.87,3.87,0,0,1,1.63,2.55,2.84,2.84,0,0,0-1.84-.28.42.42,0,0,0-.17.1,14.18,14.18,0,0,0-1.4-2.29A1.81,1.81,0,0,1,11.53,26.28Zm-7.9-3.34L1.29,25.27A15.22,15.22,0,0,1,.7,22.34a14.66,14.66,0,0,1,2.93.6Zm.25,6.84A10.48,10.48,0,0,1,1.53,26l2.8-2.8a10.38,10.38,0,0,1,3.8,2.34,11.37,11.37,0,0,1,.87,1,12.83,12.83,0,0,1,1.65,2.66L7.51,32.3a13.34,13.34,0,0,1-2.67-1.65c-.33-.28-.65-.56-1-.87Zm.75,3.39a1.78,1.78,0,0,1,.09-1.78A12.81,12.81,0,0,0,7,32.8.42.42,0,0,0,6.9,33a2.87,2.87,0,0,0,.28,1.82,3.86,3.86,0,0,1-2.55-1.62Z"/><path d="M7.66,28.84l-.47-.48A.33.33,0,0,0,7,28.27a.33.33,0,0,0-.23.1.29.29,0,0,0-.1.23.36.36,0,0,0,.09.24l.47.47a.33.33,0,0,0,.23.09.35.35,0,0,0,.24-.1.37.37,0,0,0,.1-.23A.33.33,0,0,0,7.66,28.84Z"/><path class="cls-9" d="M10.52,33.27l1.12-1.12c.2.18.39.37.57.56a18.23,18.23,0,0,1,1.22,1.87,9,9,0,0,1-2.38-.7C10.52,33.48,10.52,33.27,10.52,33.27Z"/></g></g></svg>